<?xml version="1.0" encoding="utf-8" standalone="no"?>  
<svg width="800px" height="800px" viewBox="0 0 32 32" version="1.1" xmlns="http://www.w3.org/2000/svg">  
  
    <!-- <title>hamburger</title>   -->
    <!-- <desc>Created with Sketch Beta.</desc>   -->
    <defs>  
    </defs>  
    <g id="Page-1" stroke="none" stroke-width="1" fill="none" fill-rule="evenodd">  
        <g id="Icon-Set" transform="translate(-210,-887)" fill="#000000">  
            <path  
                d="M211 895h18c.552 0 1-.448 1-1s-.448-1-1-1h-18c-.552 0-1 .448-1 1s.448 1 1 1zm0 8h18c.552 0 1-.448 1-1s-.448-1-1-1h-18c-.552 0-1 .448-1 1s.448 1 1 1zm0 8h18c.552 0 1-.448 1-1s-.448-1-1-1h-18c-.552 0-1 .448-1 1s.448 1 1 1z"  
                id="hamburger">  
            </path>  
        </g>  
    </g>  
</svg>