<svg width="20" height="20" viewBox="0 0 20 20" fill="none" xmlns="http://www.w3.org/2000/svg">
<path d="M15.8327 17.5006H6.66602V5.83398H15.8327M15.8327 4.16732H6.66602C6.22399 4.16732 5.80006 4.34291 5.4875 4.65547C5.17494 4.96803 4.99935 5.39196 4.99935 5.83398V17.5006C4.99935 17.9427 5.17494 18.3666 5.4875 18.6792C5.80006 18.9917 6.22399 19.1673 6.66602 19.1673H15.8327C16.2747 19.1673 16.6986 18.9917 17.0112 18.6792C17.3238 18.3666 17.4993 17.9427 17.4993 17.5006V5.83398C17.4993 5.39196 17.3238 4.96803 17.0112 4.65547C16.6986 4.34291 16.2747 4.16732 15.8327 4.16732ZM13.3327 0.833984H3.33268C2.89065 0.833984 2.46673 1.00958 2.15417 1.32214C1.84161 1.6347 1.66602 2.05862 1.66602 2.50065V14.1673H3.33268V2.50065H13.3327V0.833984Z" fill="#2D3748"/>
</svg>
