<svg width="24" height="24" viewBox="0 0 24 24" fill="none" xmlns="http://www.w3.org/2000/svg">
<g clip-path="url(#clip0_2718_4128)">
<path fill-rule="evenodd" clip-rule="evenodd" d="M13.9835 18.0059C15.3283 18.4492 16.5158 18.7316 18.222 19.2363C17.5665 27.209 9.73487 24.0428 13.9835 18.0059ZM20.9781 10.6814C20.8897 8.28751 20.4517 5.14729 16.9628 5.63933C15.3273 6.05022 14.1189 7.77931 13.5505 10.7625C13.2384 12.4028 13.4199 14.7051 13.7881 16.0852C14.1243 17.0578 14.01 16.9981 14.3713 17.1827C15.7699 17.486 17.1544 17.8218 18.5643 18.1641C19.9967 17.1904 21.173 12.021 20.9781 10.6814ZM10.2106 10.4975C10.5785 9.11718 10.76 6.81484 10.448 5.17478C9.88009 2.19142 8.6715 0.462047 7.03571 0.0514426C3.5468 -0.440599 3.10878 2.69957 3.02047 5.09358C2.82551 6.43301 4.00201 11.6027 5.43448 12.5762C6.84432 12.2339 8.22866 11.8984 9.62765 11.5949C9.98857 11.4103 9.87423 11.4701 10.2106 10.4975H10.2106ZM5.77425 13.6484C6.42947 21.621 14.2611 18.4548 10.0126 12.418C8.66777 12.8614 7.48038 13.1437 5.77425 13.6484Z" fill="#2D3748"/>
</g>
<defs>
<clipPath id="clip0_2718_4128">
<rect width="24" height="24" fill="white"/>
</clipPath>
</defs>
</svg>
