<svg width="50" height="50" viewBox="0 0 50 50" fill="none" xmlns="http://www.w3.org/2000/svg">
<g filter="url(#filter0_d)">
<rect x="1" width="48" height="48" rx="24" fill="#FFEAEA"/>
<path fill-rule="evenodd" clip-rule="evenodd" d="M21 15C21 14.4477 21.4477 14 22 14H28C28.5523 14 29 14.4477 29 15V17H33C33.5523 17 34 17.4477 34 18C34 18.5523 33.5523 19 33 19H32V32.5C32 33.3284 31.3284 34 30.5 34H19.5C18.6716 34 18 33.3284 18 32.5V19H17C16.4477 19 16 18.5523 16 18C16 17.4477 16.4477 17 17 17H21V15ZM24 29C24 29.5523 23.5523 30 23 30C22.4477 30 22 29.5523 22 29V23C22 22.4477 22.4477 22 23 22C23.5523 22 24 22.4477 24 23V29ZM27 30C27.5523 30 28 29.5523 28 29V23C28 22.4477 27.5523 22 27 22C26.4477 22 26 22.4477 26 23V29C26 29.5523 26.4477 30 27 30Z" fill="#F03D3D"/>
</g>
<defs>
<filter id="filter0_d" x="0" y="0" width="50" height="50" filterUnits="userSpaceOnUse" color-interpolation-filters="sRGB">
<feFlood flood-opacity="0" result="BackgroundImageFix"/>
<feColorMatrix in="SourceAlpha" type="matrix" values="0 0 0 0 0 0 0 0 0 0 0 0 0 0 0 0 0 0 127 0" result="hardAlpha"/>
<feOffset dy="1"/>
<feGaussianBlur stdDeviation="0.5"/>
<feColorMatrix type="matrix" values="0 0 0 0 0 0 0 0 0 0 0 0 0 0 0 0 0 0 0.1 0"/>
<feBlend mode="normal" in2="BackgroundImageFix" result="effect1_dropShadow"/>
<feBlend mode="normal" in="SourceGraphic" in2="effect1_dropShadow" result="shape"/>
</filter>
</defs>
</svg>
