<svg width="16" height="16" viewBox="0 0 16 16" fill="none" xmlns="http://www.w3.org/2000/svg">
<path d="M11.9998 8.66683C12.7332 8.66683 13.3332 9.26683 13.3332 10.0002C13.3332 10.7335 12.7332 11.3335 11.9998 11.3335C11.2665 11.3335 10.6665 10.7335 10.6665 10.0002C10.6665 9.26683 11.2665 8.66683 11.9998 8.66683ZM6.6665 10.0002C6.6665 10.7335 7.2665 11.3335 7.99984 11.3335C8.73317 11.3335 9.33317 10.7335 9.33317 10.0002C9.33317 9.26683 8.73317 8.66683 7.99984 8.66683C7.2665 8.66683 6.6665 9.26683 6.6665 10.0002ZM2.6665 10.0002C2.6665 10.7335 3.2665 11.3335 3.99984 11.3335C4.73317 11.3335 5.33317 10.7335 5.33317 10.0002C5.33317 9.26683 4.73317 8.66683 3.99984 8.66683C3.2665 8.66683 2.6665 9.26683 2.6665 10.0002ZM5.33317 6.00016C5.33317 5.26683 4.73317 4.66683 3.99984 4.66683C3.2665 4.66683 2.6665 5.26683 2.6665 6.00016C2.6665 6.7335 3.2665 7.3335 3.99984 7.3335C4.73317 7.3335 5.33317 6.7335 5.33317 6.00016ZM6.6665 6.00016C6.6665 6.7335 7.2665 7.3335 7.99984 7.3335C8.73317 7.3335 9.33317 6.7335 9.33317 6.00016C9.33317 5.26683 8.73317 4.66683 7.99984 4.66683C7.2665 4.66683 6.6665 5.26683 6.6665 6.00016ZM10.6665 6.00016C10.6665 6.7335 11.2665 7.3335 11.9998 7.3335C12.7332 7.3335 13.3332 6.7335 13.3332 6.00016C13.3332 5.26683 12.7332 4.66683 11.9998 4.66683C11.2665 4.66683 10.6665 5.26683 10.6665 6.00016Z" fill="#718096"/>
</svg>
