<svg width="16" height="16" viewBox="0 0 16 16" fill="none" xmlns="http://www.w3.org/2000/svg">
<path d="M2 11.5V14H4.5L11.8733 6.62668L9.37333 4.12668L2 11.5ZM13.8067 4.69335C13.8685 4.63167 13.9175 4.55841 13.951 4.47776C13.9844 4.39711 14.0016 4.31066 14.0016 4.22335C14.0016 4.13603 13.9844 4.04958 13.951 3.96893C13.9175 3.88828 13.8685 3.81502 13.8067 3.75335L12.2467 2.19335C12.185 2.13154 12.1117 2.08251 12.0311 2.04906C11.9504 2.0156 11.864 1.99838 11.7767 1.99838C11.6894 1.99838 11.6029 2.0156 11.5223 2.04906C11.4416 2.08251 11.3683 2.13154 11.3067 2.19335L10.0867 3.41335L12.5867 5.91335L13.8067 4.69335V4.69335Z" fill="#2D3748"/>
</svg>
