<svg width="32" height="32" viewBox="0 0 32 32" fill="none" xmlns="http://www.w3.org/2000/svg">
<rect width="32" height="32" rx="6" fill="black" fill-opacity="0.4"/>
<path d="M10 19.5002V22.0002H12.5L19.8733 14.6268L17.3733 12.1268L10 19.5002ZM21.8067 12.6935C21.8685 12.6318 21.9175 12.5586 21.951 12.4779C21.9844 12.3973 22.0016 12.3108 22.0016 12.2235C22.0016 12.1362 21.9844 12.0497 21.951 11.9691C21.9175 11.8884 21.8685 11.8152 21.8067 11.7535L20.2467 10.1935C20.185 10.1317 20.1117 10.0827 20.0311 10.0492C19.9504 10.0158 19.864 9.99854 19.7767 9.99854C19.6894 9.99854 19.6029 10.0158 19.5223 10.0492C19.4416 10.0827 19.3683 10.1317 19.3067 10.1935L18.0867 11.4135L20.5867 13.9135L21.8067 12.6935Z" fill="white"/>
</svg>
