<svg width="40" height="40" viewBox="0 0 40 40" fill="none" xmlns="http://www.w3.org/2000/svg">
<path d="M12.5 24.375V27.5H15.625L24.8417 18.2833L21.7167 15.1583L12.5 24.375ZM27.2583 15.8667C27.3356 15.7896 27.3969 15.698 27.4387 15.5972C27.4805 15.4964 27.502 15.3883 27.502 15.2792C27.502 15.17 27.4805 15.062 27.4387 14.9612C27.3969 14.8603 27.3356 14.7688 27.2583 14.6917L25.3083 12.7417C25.2312 12.6644 25.1397 12.6031 25.0389 12.5613C24.938 12.5195 24.83 12.498 24.7208 12.498C24.6117 12.498 24.5036 12.5195 24.4028 12.5613C24.302 12.6031 24.2104 12.6644 24.1333 12.7417L22.6083 14.2667L25.7333 17.3917L27.2583 15.8667Z" fill="#4A5568"/>
</svg>
