<svg width="500" height="479" viewBox="0 0 500 479" fill="none" xmlns="http://www.w3.org/2000/svg">
<g clip-path="url(#clip0_70_51)">
<rect x="150.5" y="139.5" width="199" height="199" rx="19.5" stroke="#00A9EB" stroke-dasharray="8 8"/>
<rect x="174" y="163" width="68" height="68" rx="8" fill="#02A8B5"/>
<path d="M225.333 177.5H190.667C188.262 177.5 186.333 179.428 186.333 181.833V207.833C186.333 208.983 186.79 210.085 187.603 210.897C188.415 211.71 189.518 212.167 190.667 212.167H199.333V216.5H216.667V212.167H225.333C227.717 212.167 229.667 210.217 229.667 207.833V181.833C229.667 180.684 229.21 179.582 228.398 178.769C227.585 177.957 226.483 177.5 225.333 177.5ZM225.333 207.833H190.667V181.833H225.333V207.833Z" fill="white"/>
<path d="M195 188.875H212.333V192.125H195V188.875ZM217.75 192.125H221V188.875H217.75V186.167H214.5V194.833H217.75V192.125ZM203.667 197.542H221V200.792H203.667V197.542ZM198.25 203.5H201.5V194.833H198.25V197.542H195V200.792H198.25V203.5Z" fill="white"/>
<rect x="258" y="163" width="68" height="68" rx="8" fill="#FA5C7C"/>
<path d="M307.47 199.037C307.557 198.387 307.6 197.715 307.6 197C307.6 196.307 307.557 195.613 307.448 194.963L311.847 191.54C312.036 191.384 312.166 191.167 312.213 190.926C312.261 190.685 312.223 190.435 312.107 190.218L307.947 183.025C307.824 182.807 307.629 182.64 307.395 182.553C307.161 182.466 306.904 182.464 306.669 182.548L301.49 184.628C300.407 183.805 299.259 183.112 297.98 182.592L297.2 177.088C297.162 176.84 297.036 176.614 296.845 176.451C296.654 176.288 296.411 176.199 296.16 176.2H287.84C287.32 176.2 286.908 176.568 286.822 177.088L286.042 182.592C284.764 183.112 283.594 183.827 282.532 184.628L277.353 182.548C276.877 182.375 276.335 182.548 276.075 183.025L271.937 190.218C271.677 190.673 271.763 191.237 272.197 191.54L276.595 194.963C276.487 195.613 276.4 196.328 276.4 197C276.4 197.672 276.443 198.387 276.552 199.037L272.153 202.46C271.964 202.616 271.834 202.833 271.787 203.074C271.74 203.315 271.777 203.565 271.893 203.782L276.053 210.975C276.313 211.452 276.855 211.603 277.332 211.452L282.51 209.372C283.594 210.195 284.742 210.888 286.02 211.408L286.8 216.912C286.909 217.432 287.32 217.8 287.84 217.8H296.16C296.68 217.8 297.114 217.432 297.179 216.912L297.958 211.408C299.237 210.888 300.407 210.195 301.469 209.372L306.647 211.452C307.124 211.625 307.665 211.452 307.925 210.975L312.085 203.782C312.345 203.305 312.237 202.763 311.825 202.46L307.47 199.037V199.037ZM292 204.8C287.71 204.8 284.2 201.29 284.2 197C284.2 192.71 287.71 189.2 292 189.2C296.29 189.2 299.8 192.71 299.8 197C299.8 201.29 296.29 204.8 292 204.8Z" fill="white"/>
<rect x="174" y="247" width="68" height="68" rx="8" fill="#727CF5"/>
<path d="M216.688 270.167L216.667 261.5H212.333V270.167H203.667V261.5H199.333V270.167H199.312C197.167 270.145 195 272.312 195 274.478V286.373L202.583 294V300.5H213.417V294L221 286.395V274.478C221 272.312 218.833 270.145 216.688 270.167Z" fill="white"/>
<rect x="258" y="247" width="68" height="68" rx="8" fill="#00A9EB"/>
<path d="M288.75 283.167H283.333V276.667H288.75V271.25H295.25V276.667H300.667V283.167H295.25V288.583H288.75V283.167ZM292 259.333L274.667 265.833V279.028C274.667 289.97 282.055 300.175 292 302.667C301.945 300.175 309.333 289.97 309.333 279.028V265.833L292 259.333Z" fill="white"/>
<path d="M471.267 254.653L451.25 249.093H428.75L408.733 254.654C404.784 255.751 401.303 258.111 398.823 261.374C396.343 264.636 395 268.622 395 272.72V292.25H485V272.72C485 264.298 479.384 256.908 471.267 254.653Z" fill="#4A5568"/>
<path d="M425 250.134L434.375 292.25H445.625L455 250.134L451.25 249.093H428.75L425 250.134Z" fill="#D3D3D3"/>
<path d="M410 284.75H413.75V292.25H410V284.75ZM466.25 284.75H470V292.25H466.25V284.75Z" fill="#2D3748"/>
<path d="M451.25 235.968H428.75V249.093L428.752 249.095L428.75 249.125C428.75 252.109 429.935 254.97 432.045 257.08C434.155 259.19 437.016 260.375 440 260.375C442.984 260.375 445.845 259.19 447.955 257.08C450.065 254.97 451.25 252.109 451.25 249.125L451.248 249.093L451.25 235.968Z" fill="#FCB98B"/>
<path d="M462.5 202.218V221C462.5 233.426 452.426 243.5 440 243.5C427.574 243.5 417.5 233.426 417.5 221V202.218H462.5ZM462.5 207.875H463.799C464.337 207.875 464.868 207.99 465.357 208.214C465.846 208.437 466.281 208.763 466.633 209.169C466.986 209.575 467.246 210.052 467.398 210.568C467.549 211.083 467.588 211.625 467.512 212.158L466.711 217.751C466.583 218.644 466.137 219.461 465.455 220.052C464.773 220.643 463.901 220.968 462.999 220.968H462.5V207.875ZM417.5 207.875H416.201C415.663 207.875 415.132 207.99 414.643 208.214C414.154 208.437 413.719 208.763 413.367 209.169C413.015 209.575 412.754 210.052 412.602 210.568C412.451 211.083 412.412 211.625 412.488 212.158L413.289 217.751C413.417 218.644 413.863 219.461 414.545 220.052C415.227 220.643 416.099 220.968 417.001 220.968H417.5V207.875Z" fill="#FFD3B3"/>
<path d="M462.5 220.968L458.75 205.968H421.25L417.5 220.968V198.5C417.5 188.144 425.894 179.75 436.25 179.75H445.625C447.614 179.75 449.522 180.54 450.928 181.947C452.335 183.353 453.125 185.261 453.125 187.25C455.611 187.25 457.996 188.238 459.754 189.996C461.512 191.754 462.5 194.139 462.5 196.625V220.968Z" fill="#4A5568"/>
<path d="M428.75 245.375L440 258.5L432.5 266L425 250.134L428.75 245.375ZM451.25 245.375L440 258.5L447.5 266L455 250.134L451.25 245.375Z" fill="#EDEFF1"/>
<path d="M445.625 264.125L440 258.5L434.375 264.125L438.125 269.75L434.375 292.25H445.625L441.875 269.75L445.625 264.125Z" fill="#FA5C7C"/>
<path d="M455 250.134L445.625 292.25H456.875L455 273.5L460.625 260.375L455 250.134ZM425 250.134L434.375 292.25H423.125L425 273.5L419.375 260.375L425 250.134Z" fill="#2D3748"/>
<path d="M118.148 43.318C106.981 70.5744 120.025 101.722 147.281 112.889C174.537 124.056 205.685 111.013 216.852 83.7562C228.019 56.4998 214.976 25.3517 187.719 14.185C160.463 3.01826 129.315 16.0615 118.148 43.318ZM441.5 83.537L431.5 83.537L441.5 83.537ZM167.5 73.5371L421.5 73.537L421.5 53.537L167.5 53.5371L167.5 73.5371ZM431.5 83.537L431.5 156.537L451.5 156.537L451.5 83.537L431.5 83.537ZM421.5 73.537C427.023 73.537 431.5 78.0141 431.5 83.537L451.5 83.537C451.5 66.9684 438.069 53.537 421.5 53.537L421.5 73.537Z" fill="#B7D4EA"/>
<path d="M230.648 389.674C219.481 416.931 232.524 448.079 259.781 459.246C287.037 470.412 318.185 457.369 329.352 430.113C340.519 402.856 327.476 371.708 300.219 360.541C272.963 349.375 241.815 362.418 230.648 389.674ZM441.5 389.893L431.5 389.893L441.5 389.893ZM280 419.894L421.5 419.893L421.5 399.893L280 399.894L280 419.894ZM451.5 389.893L451.5 312L431.5 312L431.5 389.893L451.5 389.893ZM421.5 419.893C438.069 419.893 451.5 406.462 451.5 389.893L431.5 389.893C431.5 395.416 427.023 399.893 421.5 399.893L421.5 419.893Z" fill="#B7D4EA"/>
<path d="M108.283 57.7692C111.396 59.7304 111.396 64.2696 108.283 66.2308L81.4147 83.1533C78.0851 85.2504 73.75 82.8575 73.75 78.9225V45.0775C73.75 41.1425 78.0851 38.7496 81.4147 40.8467L108.283 57.7692Z" fill="#E8EDF3"/>
<path d="M204.283 408.769C207.396 410.73 207.396 415.27 204.283 417.231L177.415 434.153C174.085 436.25 169.75 433.857 169.75 429.922V396.078C169.75 392.143 174.085 389.75 177.415 391.847L204.283 408.769Z" fill="#E8EDF3"/>
<path d="M170.717 66.2308C167.604 64.2696 167.604 59.7304 170.717 57.7692L197.585 40.8467C200.915 38.7496 205.25 41.1425 205.25 45.0775V78.9225C205.25 82.8575 200.915 85.2504 197.585 83.1533L170.717 66.2308Z" fill="white"/>
<path d="M437.769 302.717C439.73 299.604 444.27 299.604 446.231 302.717L463.153 329.585C465.25 332.915 462.857 337.25 458.922 337.25H425.078C421.143 337.25 418.75 332.915 420.847 329.585L437.769 302.717Z" fill="#B7D4EA"/>
<path d="M446.231 173.283C444.27 176.396 439.73 176.396 437.769 173.283L420.847 146.415C418.75 143.085 421.143 138.75 425.078 138.75H458.922C462.857 138.75 465.25 143.085 463.153 146.415L446.231 173.283Z" fill="#B7D4EA"/>
<path d="M288.717 417.231C285.604 415.27 285.604 410.73 288.717 408.769L315.585 391.847C318.915 389.75 323.25 392.143 323.25 396.078V429.922C323.25 433.857 318.915 436.25 315.585 434.153L288.717 417.231Z" fill="white"/>
<path d="M97.4688 103.605V117.656H186.531V103.605C186.531 94.8703 180.498 87.293 171.986 85.3336C166.78 84.1357 161.573 82.9376 156.367 81.7383L152.547 80.8594H131.453L127.633 81.7383C122.427 82.9376 117.22 84.1357 112.014 85.3336C103.502 87.293 97.4688 94.8703 97.4688 103.605Z" fill="#00A9EB"/>
<path d="M169.656 108.281H174.344V117.656H169.656V108.281ZM109.656 108.281H114.344V117.656H109.656V108.281Z" fill="#00A9EB"/>
<path d="M156.367 81.7383L143.123 117.656H140.877L127.633 81.7383L131.453 80.8594H152.547L156.367 81.7383Z" fill="#EDF2F7"/>
<path d="M131.453 80.8594H152.547L156.367 81.7383L148.969 101.804L142 93.75L135.031 101.804L127.633 81.7383L131.453 80.8594Z" fill="#CBD5E0"/>
<path d="M131.453 80.8594V69.6094H152.547V80.8594C152.547 86.6843 147.825 91.4062 142 91.4062C136.175 91.4062 131.453 86.6843 131.453 80.8594Z" fill="#FFD3B3"/>
<path d="M142 77.0789C138.375 77.0804 134.787 76.3472 131.453 74.9236V69.6094H152.547V74.9236C149.213 76.3472 145.625 77.0804 142 77.0789Z" fill="#FCB98B"/>
<path d="M146.352 108.902L143.122 117.656H140.877L137.647 108.902L139.656 100.16H144.344L146.352 108.902Z" fill="#718096"/>
<path d="M139.656 98.988H144.344V100.16H139.656V98.988Z" fill="#2D3748"/>
<path d="M142 91.4062L145.62 95.5896L144.344 98.988H139.656L138.38 95.5896L142 91.4062Z" fill="#718096"/>
<path d="M152.547 80.8594L156.367 81.7383L149.574 100.16L142 91.4062L152.547 80.8594ZM131.453 80.8594L127.633 81.7383L134.426 100.16L142 91.4062L131.453 80.8594Z" fill="#EDF2F7"/>
<path d="M117.391 37.2656H120.203V49.4531H117.391C115.578 49.4531 114.109 47.9841 114.109 46.1719V40.5469C114.109 38.7347 115.578 37.2656 117.391 37.2656ZM166.609 37.2656H163.797V49.4531H166.609C168.422 49.4531 169.891 47.9841 169.891 46.1719V40.5469C169.891 38.7347 168.422 37.2656 166.609 37.2656Z" fill="#FFD3B3"/>
<path d="M120.203 27.6562V51.4453C120.203 63.5039 129.962 72.4219 142 72.4219C154.038 72.4219 163.797 63.5039 163.797 51.4453V27.6562H120.203Z" fill="#FFD3B3"/>
<path d="M142 5.39062C155.535 5.39062 166.609 16.4648 166.609 30V37.2656H163.797V49.4531L160.281 37.0312C146.948 36.6488 135.713 34.5769 130.047 27.8906C130.047 27.8906 128.004 34.3005 123.484 37.0312L120.203 49.4531V37.2656H117.391V30C117.391 16.4648 128.465 5.39062 142 5.39062Z" fill="#718096"/>
<path d="M116.805 37.2656V30C116.805 16.1072 128.107 4.80469 142 4.80469C155.893 4.80469 167.195 16.1072 167.195 30V37.2656H116.805Z" fill="#EDF2F7"/>
<path d="M155.134 8.50781L151.11 28.7461H132.89L128.866 8.50781C132.693 6.15937 137.191 4.80469 142 4.80469C146.809 4.80469 151.307 6.15937 155.134 8.50781Z" fill="#CBD5E0"/>
<path d="M154.096 4.71563L149.666 26.9883H134.333L129.904 4.71563C133.358 3.29531 137.066 2.49375 140.889 2.3625C141.259 2.35078 141.63 2.34375 142 2.34375C142.37 2.34375 142.741 2.35078 143.111 2.3625C146.933 2.49375 150.641 3.29531 154.096 4.71563Z" fill="#EDF2F7"/>
<path d="M143.111 2.3625V20.1H140.889V2.3625C141.259 2.35078 141.63 2.34375 142 2.34375C142.37 2.34375 142.741 2.35078 143.111 2.3625Z" fill="#CBD5E0"/>
<path d="M110.594 37.2656H173.406V32.5781L142 29.0625L110.594 32.5781V37.2656Z" fill="#EDF2F7"/>
<path d="M294.531 461.605V475.656H205.469V461.605C205.469 452.87 211.502 445.293 220.014 443.334L239.453 438.859H260.547L279.986 443.334C288.498 445.293 294.531 452.87 294.531 461.605Z" fill="#727CF5"/>
<path d="M277.656 442.797V475.656H222.344V442.797L231.719 440.641V466.281H268.281V440.641L277.656 442.797Z" fill="#E2E8F0"/>
<path d="M265.197 439.93C264.646 447.834 258.039 454.094 250 454.094C241.961 454.094 235.354 447.834 234.803 439.93L239.453 438.859H260.547L265.197 439.93Z" fill="#EDEFF1"/>
<path d="M277.656 466.281H282.344V475.656H277.656V466.281ZM217.656 466.281H222.344V475.656H217.656V466.281Z" fill="#003270"/>
<path d="M239.453 438.859V427.609H260.547V438.859C260.547 444.684 255.825 449.406 250 449.406C244.175 449.406 239.453 444.684 239.453 438.859Z" fill="#FFD3B3"/>
<path d="M250 435.079C246.375 435.08 242.787 434.347 239.453 432.924V427.609H260.547V432.924C257.213 434.347 253.625 435.08 250 435.079Z" fill="#FCB98B"/>
<path d="M225.391 395.266H228.203V407.453H225.391C223.578 407.453 222.109 405.984 222.109 404.172V398.547C222.109 396.735 223.578 395.266 225.391 395.266ZM274.609 395.266H271.797V407.453H274.609C276.422 407.453 277.891 405.984 277.891 404.172V398.547C277.891 396.735 276.422 395.266 274.609 395.266Z" fill="#FFD3B3"/>
<path d="M228.203 385.656V409.445C228.203 421.504 237.962 430.422 250 430.422C262.038 430.422 271.797 421.504 271.797 409.445V385.656H228.203Z" fill="#FFD3B3"/>
<path d="M250 363.391C263.535 363.391 274.609 374.465 274.609 388V395.266H271.797V407.453L268.281 395.031C254.948 394.649 243.713 392.577 238.047 385.891C238.047 385.891 236.004 392.301 231.484 395.031L228.203 407.453V395.266H225.391V388C225.391 374.465 236.465 363.391 250 363.391Z" fill="#727CF5"/>
<path d="M224.805 395.266V388C224.805 374.107 236.107 362.805 250 362.805C263.893 362.805 275.195 374.107 275.195 388V395.266H224.805Z" fill="#E2E8F0"/>
<path d="M263.134 366.508L259.11 386.746H240.89L236.866 366.508C240.693 364.159 245.191 362.805 250 362.805C254.809 362.805 259.307 364.159 263.134 366.508Z" fill="#A0AEC0"/>
<path d="M262.096 362.716L257.666 384.988H242.333L237.904 362.716C241.358 361.295 245.066 360.494 248.889 360.362C249.259 360.351 249.63 360.344 250 360.344C250.37 360.344 250.741 360.351 251.111 360.362C254.933 360.494 258.641 361.295 262.096 362.716Z" fill="#E2E8F0"/>
<path d="M251.111 360.362V378.1H248.889V360.362C249.259 360.351 249.63 360.344 250 360.344C250.37 360.344 250.741 360.351 251.111 360.362Z" fill="#A0AEC0"/>
<path d="M218.594 395.266H281.406V390.578L250 387.062L218.594 390.578V395.266Z" fill="#E2E8F0"/>
<path d="M84.4847 64.5002L69.9999 64.5001C58.9541 64.5001 49.9997 73.4544 49.9997 84.5001L49.9998 393.878C49.9998 404.923 58.9541 413.878 69.9998 413.878L174.485 413.878" stroke="#E8EDF3" stroke-width="20"/>
</g>
<defs>
<clipPath id="clip0_70_51">
<rect width="500" height="478.485" fill="white"/>
</clipPath>
</defs>
</svg>
