<svg width="24" height="24" viewBox="0 0 24 24" fill="none" xmlns="http://www.w3.org/2000/svg">
<path d="M2.72564 15.9112C2.8047 16.2034 3.1072 16.3787 3.39939 16.2997L10.8381 14.3059C11.1303 14.2269 11.3056 13.9244 11.2266 13.6322L9.51814 7.25562C9.43907 6.96343 9.13657 6.78812 8.84439 6.86718L6.19064 7.58218L7.04314 10.7687L4.91877 11.3359L4.06627 8.14937L1.40908 8.86093C1.11689 8.93999 0.941581 9.2425 1.02064 9.53468L2.72564 15.9112ZM14.2 3C13.5916 3 13.1 3.49156 13.1 4.1V15.2237L1.20283 18.4687C1.05502 18.51 0.969081 18.6612 1.01033 18.8056L1.44346 20.3972C1.48471 20.545 1.63596 20.6309 1.78033 20.5897L15.3138 16.8978C15.3963 18.9534 17.0738 20.6 19.15 20.6C21.2778 20.6 23 18.8778 23 16.75V3H14.2ZM19.15 18.4C18.2391 18.4 17.5 17.6609 17.5 16.75C17.5 15.8391 18.2391 15.1 19.15 15.1C20.0609 15.1 20.8 15.8391 20.8 16.75C20.8 17.6609 20.0609 18.4 19.15 18.4Z" fill="#2D3748"/>
</svg>
