<svg width="24" height="32" viewBox="0 0 24 32" fill="none" xmlns="http://www.w3.org/2000/svg">
<g opacity="0.7" clip-path="url(#clip0_3107_56269)">
<path d="M4 0C1.79375 0 0 1.79375 0 4V28C0 30.2062 1.79375 32 4 32H20C22.2062 32 24 30.2062 24 28V10H16C14.8938 10 14 9.10625 14 8V0H4ZM16 0V8H24L16 0ZM9.73125 15.6375L12 18.8813L14.2688 15.6375C14.7438 14.9563 15.6813 14.7937 16.3563 15.2688C17.0312 15.7438 17.2 16.6813 16.725 17.3563L13.8313 21.5L16.7313 25.6375C17.2063 26.3188 17.0437 27.25 16.3625 27.725C15.6812 28.2 14.75 28.0375 14.275 27.3563L12 24.1125L9.73125 27.3563C9.25625 28.0375 8.31875 28.2 7.64375 27.725C6.96875 27.25 6.8 26.3125 7.275 25.6375L10.1687 21.5L7.26875 17.3625C6.79375 16.6812 6.95625 15.75 7.6375 15.275C8.31875 14.8 9.25 14.9625 9.725 15.6438L9.73125 15.6375Z" fill="#4A8DB7"/>
</g>
<defs>
<clipPath id="clip0_3107_56269">
<rect width="24" height="32" fill="white"/>
</clipPath>
</defs>
</svg>
