<svg width="24" height="32" viewBox="0 0 24 32" fill="none" xmlns="http://www.w3.org/2000/svg">
<g opacity="0.7" clip-path="url(#clip0_3107_54903)">
<path d="M4 0C1.79375 0 0 1.79375 0 4V28C0 30.2062 1.79375 32 4 32H20C22.2062 32 24 30.2062 24 28V10H16C14.8938 10 14 9.10625 14 8V0H4ZM16 0V8H24L16 0ZM6.9375 16.0688L8.6125 21.6437L10.5875 16C10.8 15.4 11.3688 14.9937 12.0063 14.9937C12.6438 14.9937 13.2125 15.3938 13.425 16L15.4 21.6437L17.0625 16.0688C17.3 15.275 18.1375 14.825 18.9312 15.0625C19.725 15.3 20.175 16.1375 19.9375 16.9312L16.9375 26.9312C16.75 27.5562 16.1875 27.9875 15.5375 28C14.8875 28.0125 14.3 27.6125 14.0875 26.9937L12 21.0375L9.91875 26.9937C9.70625 27.6062 9.11875 28.0125 8.46875 28C7.81875 27.9875 7.25 27.5562 7.06875 26.9312L4.06875 16.9312C3.83125 16.1375 4.28125 15.3 5.075 15.0625C5.86875 14.825 6.70625 15.275 6.94375 16.0688H6.9375Z" fill="#4A8DB7"/>
</g>
<defs>
<clipPath id="clip0_3107_54903">
<rect width="24" height="32" fill="white"/>
</clipPath>
</defs>
</svg>
