<svg width="32" height="32" viewBox="0 0 32 32" fill="none" xmlns="http://www.w3.org/2000/svg">
<g opacity="0.7" clip-path="url(#clip0_3107_54906)">
<path d="M0 4C0 1.79375 1.79375 0 4 0H14V8C14 9.10625 14.8938 10 16 10H24V19H11C8.79375 19 7 20.7938 7 23V32H4C1.79375 32 0 30.2062 0 28V4ZM24 8H16V0L24 8ZM12.5 22H13.5C14.8813 22 16 23.1187 16 24.5V25C16 25.55 15.55 26 15 26C14.45 26 14 25.55 14 25V24.5C14 24.225 13.775 24 13.5 24H12.5C12.225 24 12 24.225 12 24.5V29.5C12 29.775 12.225 30 12.5 30H13.5C13.775 30 14 29.775 14 29.5V29C14 28.45 14.45 28 15 28C15.55 28 16 28.45 16 29V29.5C16 30.8813 14.8813 32 13.5 32H12.5C11.1187 32 10 30.8813 10 29.5V24.5C10 23.1187 11.1187 22 12.5 22ZM20.8188 22H23C23.55 22 24 22.45 24 23C24 23.55 23.55 24 23 24H20.8188C20.3687 24 20 24.3687 20 24.8188C20 25.1438 20.1875 25.4375 20.4875 25.5688L22.825 26.6063C23.8438 27.0563 24.5 28.0688 24.5 29.1812C24.5 30.7375 23.2375 32 21.6812 32H19C18.45 32 18 31.55 18 31C18 30.45 18.45 30 19 30H21.6812C22.1313 30 22.5 29.6313 22.5 29.1812C22.5 28.8562 22.3125 28.5625 22.0125 28.4312L19.675 27.3937C18.6562 26.9437 18 25.9312 18 24.8188C18 23.2625 19.2625 22 20.8188 22ZM27 22C27.55 22 28 22.45 28 23V24.975C28 26.4125 28.3438 27.825 29 29.1C29.6562 27.8313 30 26.4188 30 24.975V23C30 22.45 30.45 22 31 22C31.55 22 32 22.45 32 23V24.975C32 27.1438 31.3562 29.2688 30.15 31.075L29.8312 31.5562C29.6437 31.8375 29.3312 32 29 32C28.6688 32 28.3563 31.8312 28.1688 31.5562L27.85 31.075C26.6438 29.2688 26 27.1438 26 24.975V23C26 22.45 26.45 22 27 22Z" fill="#4A8DB7"/>
</g>
<defs>
<clipPath id="clip0_3107_54906">
<rect width="32" height="32" fill="white"/>
</clipPath>
</defs>
</svg>
