<svg width="24" height="32" viewBox="0 0 24 32" fill="none" xmlns="http://www.w3.org/2000/svg">
<g opacity="0.7" clip-path="url(#clip0_3107_64447)">
<path d="M4 0C1.79375 0 0 1.79375 0 4V28C0 30.2062 1.79375 32 4 32H20C22.2062 32 24 30.2062 24 28V10H16C14.8938 10 14 9.10625 14 8V0H4ZM16 0V8H24L16 0ZM9.5625 18.0625L7.625 20L9.5625 21.9375C10.15 22.525 10.15 23.475 9.5625 24.0562C8.975 24.6375 8.025 24.6437 7.44375 24.0562L4.4375 21.0625C3.85 20.475 3.85 19.525 4.4375 18.9438L7.4375 15.9438C8.025 15.3563 8.975 15.3563 9.55625 15.9438C10.1375 16.5312 10.1437 17.4813 9.55625 18.0625H9.5625ZM16.5625 15.9375L19.5625 18.9375C20.15 19.525 20.15 20.475 19.5625 21.0562L16.5625 24.0562C15.975 24.6437 15.025 24.6437 14.4438 24.0562C13.8625 23.4688 13.8563 22.5187 14.4438 21.9375L16.3813 20L14.4438 18.0625C13.8563 17.475 13.8563 16.525 14.4438 15.9438C15.0312 15.3625 15.9812 15.3563 16.5625 15.9438V15.9375Z" fill="#4A8DB7"/>
</g>
<defs>
<clipPath id="clip0_3107_64447">
<rect width="24" height="32" fill="white"/>
</clipPath>
</defs>
</svg>
