<svg width="24" height="32" viewBox="0 0 24 32" fill="none" xmlns="http://www.w3.org/2000/svg">
<g opacity="0.7" clip-path="url(#clip0_3107_61721)">
<path d="M4 0C1.79375 0 0 1.79375 0 4V28C0 30.2062 1.79375 32 4 32H20C22.2062 32 24 30.2062 24 28V10H16C14.8938 10 14 9.10625 14 8V0H4ZM16 0V8H24L16 0ZM16.125 14.1438C18.4438 15.5437 20 18.0875 20 21C20 23.9125 18.4438 26.4563 16.125 27.8563C15.65 28.1438 15.0375 27.9875 14.75 27.5187C14.4625 27.05 14.6187 26.4312 15.0875 26.1437C16.8375 25.0938 18 23.1812 18 21C18 18.8188 16.8375 16.9062 15.0938 15.8562C14.6187 15.5687 14.4688 14.9563 14.7563 14.4812C15.0438 14.0062 15.6562 13.8562 16.1313 14.1438H16.125ZM10.3813 16.075C10.7563 16.2313 11 16.5938 11 17V25C11 25.4062 10.7563 25.7687 10.3813 25.925C10.0063 26.0812 9.575 25.9937 9.29375 25.7062L7.0875 23.5H5C4.45 23.5 4 23.05 4 22.5V19.5C4 18.95 4.45 18.5 5 18.5H7.0875L9.29375 16.2938C9.58125 16.0063 10.0125 15.925 10.3813 16.075ZM13.5688 18.2563C13.9813 17.8875 14.6125 17.925 14.9812 18.3375C15.6125 19.0375 16 19.975 16 21C16 22.025 15.6125 22.9625 14.9812 23.6688C14.6125 24.0813 13.9813 24.1125 13.5688 23.75C13.1562 23.3875 13.125 22.75 13.4875 22.3375C13.8063 21.9812 13.9937 21.5188 13.9937 21.0063C13.9937 20.4937 13.8 20.025 13.4875 19.675C13.1188 19.2625 13.1562 18.6313 13.5688 18.2625V18.2563Z" fill="#4A8DB7"/>
</g>
<defs>
<clipPath id="clip0_3107_61721">
<rect width="24" height="32" fill="white"/>
</clipPath>
</defs>
</svg>
