<svg width="24" height="32" viewBox="0 0 24 32" fill="none" xmlns="http://www.w3.org/2000/svg">
<g opacity="0.7" clip-path="url(#clip0_3107_60358)">
<path d="M4 0C1.79375 0 0 1.79375 0 4V28C0 30.2062 1.79375 32 4 32H20C22.2062 32 24 30.2062 24 28V10H16C14.8937 10 14 9.10625 14 8V0H4ZM16 0V8H24L16 0ZM4 18C4 16.8937 4.89375 16 6 16H12C13.1063 16 14 16.8937 14 18V24C14 25.1063 13.1063 26 12 26H6C4.89375 26 4 25.1063 4 24V18ZM18.8062 24.8687L16 23V19L18.8062 17.1313C18.9312 17.05 19.0813 17 19.2313 17C19.6563 17 20 17.3437 20 17.7687V24.2313C20 24.6563 19.6563 25 19.2313 25C19.0813 25 18.9312 24.9562 18.8062 24.8687Z" fill="#4A8DB7"/>
</g>
<defs>
<clipPath id="clip0_3107_60358">
<rect width="24" height="32" fill="white"/>
</clipPath>
</defs>
</svg>
