<svg width="36" height="32" viewBox="0 0 36 32" fill="none" xmlns="http://www.w3.org/2000/svg">
<g opacity="0.7" clip-path="url(#clip0_3107_57632)">
<path d="M0 4C0 1.79375 1.79375 0 4 0H14V8C14 9.10625 14.8937 10 16 10H24V12.4125C19.3812 13.7188 16 17.9625 16 23C16 26.6937 17.8188 29.9562 20.6063 31.9562C20.4063 31.9875 20.2062 32 20 32H4C1.79375 32 0 30.2062 0 28V4ZM24 8H16V0L24 8ZM27 14C29.3869 14 31.6761 14.9482 33.364 16.636C35.0518 18.3239 36 20.6131 36 23C36 25.3869 35.0518 27.6761 33.364 29.364C31.6761 31.0518 29.3869 32 27 32C24.6131 32 22.3239 31.0518 20.636 29.364C18.9482 27.6761 18 25.3869 18 23C18 20.6131 18.9482 18.3239 20.636 16.636C22.3239 14.9482 24.6131 14 27 14ZM27 29C27.3978 29 27.7794 28.842 28.0607 28.5607C28.342 28.2794 28.5 27.8978 28.5 27.5C28.5 27.1022 28.342 26.7206 28.0607 26.4393C27.7794 26.158 27.3978 26 27 26C26.6022 26 26.2206 26.158 25.9393 26.4393C25.658 26.7206 25.5 27.1022 25.5 27.5C25.5 27.8978 25.658 28.2794 25.9393 28.5607C26.2206 28.842 26.6022 29 27 29ZM23 20.1V20.5C23 21.05 23.45 21.5 24 21.5C24.55 21.5 25 21.05 25 20.5V20.1C25 19.7688 25.2688 19.5 25.6 19.5H28.1313C28.6125 19.5 29 19.8875 29 20.3687C29 20.6937 28.8188 20.9875 28.5375 21.1375L26.5375 22.1875C26.2063 22.3625 26 22.7 26 23.075V24C26 24.55 26.45 25 27 25C27.55 25 28 24.55 28 24V23.6812L29.4688 22.9125C30.4125 22.4188 31 21.4375 31 20.375C31 18.7875 29.7125 17.5063 28.1313 17.5063H25.6C24.1625 17.5063 23 18.6688 23 20.1063V20.1Z" fill="#4A8DB7"/>
</g>
<defs>
<clipPath id="clip0_3107_57632">
<rect width="36" height="32" fill="white"/>
</clipPath>
</defs>
</svg>
