<svg width="24" height="32" viewBox="0 0 24 32" fill="none" xmlns="http://www.w3.org/2000/svg">
<g opacity="0.7" clip-path="url(#clip0_3107_58995)">
<path d="M4 0C1.79375 0 0 1.79375 0 4V28C0 30.2062 1.79375 32 4 32H20C22.2062 32 24 30.2062 24 28V10H16C14.8938 10 14 9.10625 14 8V0H4ZM16 0V8H24L16 0ZM8.5 15H12.75C15.375 15 17.5 17.125 17.5 19.75C17.5 22.375 15.375 24.5 12.75 24.5H10V26.5C10 27.3312 9.33125 28 8.5 28C7.66875 28 7 27.3312 7 26.5V16.5C7 15.6687 7.66875 15 8.5 15ZM12.75 21.5C13.7188 21.5 14.5 20.7188 14.5 19.75C14.5 18.7812 13.7188 18 12.75 18H10V21.5H12.75Z" fill="#4A8DB7"/>
</g>
<defs>
<clipPath id="clip0_3107_58995">
<rect width="24" height="32" fill="white"/>
</clipPath>
</defs>
</svg>
