<svg width="24" height="32" viewBox="0 0 24 32" fill="none" xmlns="http://www.w3.org/2000/svg">
<g opacity="0.7" clip-path="url(#clip0_3107_63084)">
<path d="M4 0C1.79375 0 0 1.79375 0 4V28C0 30.2062 1.79375 32 4 32H20C22.2062 32 24 30.2062 24 28V10H16C14.8938 10 14 9.10625 14 8V0H4ZM16 0V8H24L16 0ZM6 3C6 2.45 6.45 2 7 2H9C9.55 2 10 2.45 10 3C10 3.55 9.55 4 9 4H7C6.45 4 6 3.55 6 3ZM6 7C6 6.45 6.45 6 7 6H9C9.55 6 10 6.45 10 7C10 7.55 9.55 8 9 8H7C6.45 8 6 7.55 6 7ZM6 11C6 10.45 6.45 10 7 10H9C9.55 10 10 10.45 10 11C10 11.55 9.55 12 9 12H7C6.45 12 6 11.55 6 11ZM5.60625 15.4875C5.8375 14.6125 6.63125 14 7.5375 14H8.4625C9.36875 14 10.1625 14.6062 10.3938 15.4875L11.8625 21C11.95 21.3375 11.9937 21.6812 11.9937 22.025C11.9937 24.225 10.1938 26.0063 7.99375 26.0063C5.79375 26.0063 3.99375 24.225 3.99375 22.025C3.99375 21.6812 4.0375 21.3312 4.125 21L5.59375 15.4875H5.60625ZM7 21C6.45 21 6 21.45 6 22C6 22.55 6.45 23 7 23H9C9.55 23 10 22.55 10 22C10 21.45 9.55 21 9 21H7Z" fill="#4A8DB7"/>
</g>
<defs>
<clipPath id="clip0_3107_63084">
<rect width="24" height="32" fill="white"/>
</clipPath>
</defs>
</svg>
