<svg xmlns="http://www.w3.org/2000/svg" width="24" height="24" viewBox="0 0 24 24" fill="none">
<g clip-path="url(#clip0_8682_105578)">
<path fill-rule="evenodd" clip-rule="evenodd" d="M13.9842 18.0059C15.329 18.4492 16.5165 18.7316 18.2227 19.2363C17.5672 27.209 9.7356 24.0428 13.9842 18.0059ZM20.9788 10.6814C20.8905 8.28751 20.4525 5.14729 16.9636 5.63933C15.328 6.05022 14.1196 7.77932 13.5513 10.7625C13.2391 12.4028 13.4206 14.7051 13.7888 16.0852C14.125 17.0578 14.0107 16.9981 14.372 17.1827C15.7706 17.486 17.1551 17.8218 18.5651 18.1641C19.9974 17.1904 21.1738 12.021 20.9788 10.6814ZM10.2113 10.4975C10.5792 9.11718 10.7607 6.81484 10.4487 5.17478C9.88082 2.19142 8.67223 0.462047 7.03644 0.0514426C3.54753 -0.440599 3.10951 2.69957 3.02121 5.09358C2.82624 6.43301 4.00275 11.6027 5.43521 12.5762C6.84505 12.2339 8.22939 11.8984 9.62838 11.5949C9.9893 11.4103 9.87496 11.4701 10.2113 10.4975H10.2113ZM5.77498 13.6484C6.4302 21.621 14.2618 18.4548 10.0133 12.418C8.6685 12.8614 7.48111 13.1437 5.77498 13.6484Z" fill="#00A9EB"/>
</g>
<defs>
<clipPath id="clip0_8682_105578">
<rect width="24" height="24" fill="white"/>
</clipPath>
</defs>
</svg>
