<svg xmlns="http://www.w3.org/2000/svg" width="16" height="16" viewBox="0 0 16 16" fill="none">
<path d="M7.94637 14.0998C6.25878 14.0998 4.82764 13.5044 3.65294 12.3138C2.47825 11.1232 1.89277 9.67974 1.8965 7.98345H3.03202C3.03509 9.36251 3.51021 10.5374 4.4574 11.5082C5.4046 12.4789 6.56752 12.9643 7.94615 12.9643C9.34397 12.9643 10.5291 12.4734 11.5016 11.4916C12.4741 10.5098 12.9603 9.31846 12.9603 7.9175C12.9603 6.54988 12.4693 5.39439 11.4874 4.45102C10.5055 3.50766 9.32508 3.03598 7.94615 3.03598C7.21185 3.03598 6.52212 3.19957 5.87695 3.52675C5.23179 3.85392 4.66874 4.28888 4.18782 4.83163H5.85412V5.88345H2.29107V2.34105H3.33492V4.06388C3.92066 3.39142 4.61209 2.86207 5.40919 2.47584C6.2063 2.0896 7.05195 1.89648 7.94615 1.89648C8.79277 1.89648 9.58873 2.05536 10.334 2.37312C11.0793 2.69087 11.7319 3.12386 12.2919 3.67208C12.8518 4.2203 13.2924 4.86148 13.6138 5.59564C13.9351 6.32978 14.0958 7.12016 14.0958 7.96678C14.0958 8.81341 13.9351 9.60935 13.6138 10.3546C13.2924 11.0999 12.8518 11.7494 12.2919 12.3032C11.7319 12.8569 11.0793 13.2948 10.334 13.6168C9.58873 13.9388 8.79285 14.0998 7.94637 14.0998ZM10.0635 10.7407L7.49687 8.20737V4.61678H8.54072V7.76679L10.8161 9.98817L10.0635 10.7407Z" fill="#2D3748"/>
</svg>
