<svg width="24" height="24" viewBox="0 0 24 24" fill="none" xmlns="http://www.w3.org/2000/svg">
<path fill-rule="evenodd" clip-rule="evenodd" d="M2.8478 9.73021H12.4128C12.4644 9.73021 12.5065 9.77231 12.5065 9.82396V15.5422C12.5065 15.5938 12.4644 15.6359 12.4128 15.6359H2.8478C2.79614 15.6359 2.75405 15.5938 2.75405 15.5422V9.82396C2.75409 9.77231 2.79619 9.73021 2.8478 9.73021ZM2.00409 8.946H0.84375C0.792141 8.946 0.75 8.98809 0.75 9.03975V16.3264C0.75 16.378 0.792094 16.4201 0.84375 16.4201H2.00409C2.05575 16.4201 2.09784 16.378 2.09784 16.3264V9.03975C2.09784 8.98809 2.05575 8.946 2.00409 8.946ZM14.4169 8.946H13.2565C13.2049 8.946 13.1628 8.98809 13.1628 9.03975V16.3264C13.1628 16.378 13.2049 16.4201 13.2565 16.4201H14.4169C14.4685 16.4201 14.5106 16.378 14.5106 16.3264V9.03975C14.5106 8.98809 14.4685 8.946 14.4169 8.946ZM18.7612 10.3918H20.9587C22.2189 10.3918 23.25 11.4228 23.25 12.683C23.25 13.9432 22.2189 14.9743 20.9587 14.9743H18.7612C18.7095 14.9743 18.6675 14.9322 18.6675 14.8805V10.4855C18.6675 10.4339 18.7096 10.3918 18.7612 10.3918ZM20.9587 11.5713C20.3473 11.5713 19.847 12.0716 19.847 12.683C19.847 13.2945 20.3473 13.7947 20.9587 13.7947C21.5702 13.7947 22.0705 13.2944 22.0705 12.683C22.0705 12.0716 21.5702 11.5713 20.9587 11.5713ZM10.7467 7.57959H12.1982C12.2499 7.57959 12.292 7.62168 12.292 7.67334V8.98021C12.292 9.03187 12.2499 9.07396 12.1982 9.07396H10.7467C10.695 9.07396 10.653 9.03187 10.653 8.98021V7.67334C10.653 7.62173 10.695 7.57959 10.7467 7.57959ZM3.25411 7.57959H4.70564C4.7573 7.57959 4.79939 7.62168 4.79939 7.67334V8.98021C4.79939 9.03187 4.7573 9.07396 4.70564 9.07396H3.25411C3.20245 9.07396 3.16036 9.03187 3.16036 8.98021V7.67334C3.16036 7.62173 3.20245 7.57959 3.25411 7.57959ZM15.2606 11.4463H17.9175C17.9691 11.4463 18.0112 11.4884 18.0112 11.5401V13.826C18.0112 13.8777 17.9691 13.9198 17.9175 13.9198H15.2606C15.2089 13.9198 15.1668 13.8777 15.1668 13.826V11.5401C15.1669 11.4884 15.209 11.4463 15.2606 11.4463Z" fill="#2D3748"/>
</svg>
