<svg width="16" height="16" viewBox="0 0 16 16" fill="none" xmlns="http://www.w3.org/2000/svg">
<path d="M6.66683 2.66663C5.95959 2.66663 5.28131 2.94758 4.78121 3.44767C4.28111 3.94777 4.00016 4.62605 4.00016 5.33329C4.00016 6.04054 4.28111 6.71881 4.78121 7.21891C5.28131 7.71901 5.95959 7.99996 6.66683 7.99996C7.37407 7.99996 8.05235 7.71901 8.55245 7.21891C9.05255 6.71881 9.3335 6.04054 9.3335 5.33329C9.3335 4.62605 9.05255 3.94777 8.55245 3.44767C8.05235 2.94758 7.37407 2.66663 6.66683 2.66663ZM6.66683 3.99996C7.02045 3.99996 7.35959 4.14044 7.60964 4.39048C7.85969 4.64053 8.00016 4.97967 8.00016 5.33329C8.00016 5.68691 7.85969 6.02605 7.60964 6.2761C7.35959 6.52615 7.02045 6.66663 6.66683 6.66663C6.31321 6.66663 5.97407 6.52615 5.72402 6.2761C5.47397 6.02605 5.3335 5.68691 5.3335 5.33329C5.3335 4.97967 5.47397 4.64053 5.72402 4.39048C5.97407 4.14044 6.31321 3.99996 6.66683 3.99996ZM6.66683 8.66663C4.88683 8.66663 1.3335 9.55329 1.3335 11.3333V13.3333H7.66683C7.49905 12.9293 7.39341 12.5022 7.3535 12.0666H2.60016V11.3333C2.60016 10.9066 4.68683 9.93329 6.66683 9.93329C7.00016 9.93329 7.3335 9.96663 7.66683 10.02C7.8379 9.59898 8.07412 9.20753 8.36683 8.85996C7.74016 8.73329 7.14016 8.66663 6.66683 8.66663ZM11.6668 8.66663C10.0002 8.66663 8.66683 9.99996 8.66683 11.6666C8.66683 13.3333 10.0002 14.6666 11.6668 14.6666C13.3335 14.6666 14.6668 13.3333 14.6668 11.6666C14.6668 9.99996 13.3335 8.66663 11.6668 8.66663ZM11.6668 9.66663C12.7735 9.66663 13.6668 10.56 13.6668 11.6666C13.6668 12.04 13.5668 12.3866 13.3868 12.6666L10.6668 9.94663C10.9468 9.76663 11.2935 9.66663 11.6668 9.66663ZM9.94683 10.6666L12.6668 13.3866C12.3868 13.5666 12.0402 13.6666 11.6668 13.6666C10.5602 13.6666 9.66683 12.7733 9.66683 11.6666C9.66683 11.2933 9.76683 10.9466 9.94683 10.6666Z" fill="#2D3748"/>
</svg>
