<svg width="24" height="24" viewBox="0 0 24 24" fill="none" xmlns="http://www.w3.org/2000/svg">
<path d="M12 12.8999L9.87 14.9899C9.31 15.5499 9 16.2799 9 17.0599C9 18.6799 10.35 19.9999 12 19.9999C13.65 19.9999 15 18.6799 15 17.0599C15 16.2799 14.69 15.5399 14.13 14.9899L12 12.8999Z" fill="#2D3748"/>
<path d="M16 6L15.56 6.55C14.38 8.02 12 7.19 12 5.3V2C12 2 4 6 4 13C4 15.92 5.56 18.47 7.89 19.86C7.33 19.07 7 18.1 7 17.06C7 15.74 7.52 14.5 8.47 13.56L12 10.1L15.53 13.57C16.48 14.5 17 15.74 17 17.07C17 18.09 16.69 19.03 16.15 19.82C18.04 18.67 19.44 16.76 19.86 14.52C20.52 10.97 18.79 7.62 16 6Z" fill="#2D3748"/>
</svg>
