<svg width="24" height="24" viewBox="0 0 24 24" fill="none" xmlns="http://www.w3.org/2000/svg">
<path d="M13.783 15.1722L15.904 13.0512L21.9 19.0472L19.779 21.1682L13.783 15.1722ZM17.5 10.0002C19.43 10.0002 21 8.43015 21 6.50015C21 5.92015 20.84 5.38015 20.59 4.90015L17.89 7.60015L16.4 6.11015L19.1 3.41015C18.62 3.16015 18.08 3.00015 17.5 3.00015C15.57 3.00015 14 4.57015 14 6.50015C14 6.91015 14.08 7.30015 14.21 7.66015L12.36 9.51015L10.58 7.73015L11.29 7.02015L9.87998 5.61015L12 3.49015C11.4375 2.92835 10.675 2.61279 9.87998 2.61279C9.08497 2.61279 8.32248 2.92835 7.75998 3.49015L4.21998 7.03015L5.62998 8.44015H2.80998L2.09998 9.15015L5.63998 12.6902L6.34998 11.9802V9.15015L7.75998 10.5602L8.46998 9.85015L10.25 11.6302L2.83998 19.0402L4.95998 21.1602L16.34 9.79015C16.7 9.92015 17.09 10.0002 17.5 10.0002Z" fill="#2D3748"/>
</svg>
