<svg width="24" height="24" viewBox="0 0 24 24" fill="none" xmlns="http://www.w3.org/2000/svg">
<path d="M20 3H4C2.89 3 2 3.89 2 5V17C2 17.5304 2.21071 18.0391 2.58579 18.4142C2.96086 18.7893 3.46957 19 4 19H8V21H16V19H20C21.1 19 22 18.1 22 17V5C22 4.46957 21.7893 3.96086 21.4142 3.58579C21.0391 3.21071 20.5304 3 20 3ZM20 17H4V5H20V17Z" fill="#2D3748"/>
<path d="M6 8.25H14V9.75H6V8.25ZM16.5 9.75H18V8.25H16.5V7H15V11H16.5V9.75ZM10 12.25H18V13.75H10V12.25ZM7.5 15H9V11H7.5V12.25H6V13.75H7.5V15Z" fill="#2D3748"/>
</svg>
