<svg xmlns="http://www.w3.org/2000/svg" width="20" height="20" viewBox="0 0 20 20" fill="none">
  <path d="M3.85594 16.144H11.9773V11.9774H16.144V3.85599H3.85594V16.144ZM3.85594 17.7944C3.40209 17.7944 3.01357 17.6328 2.69036 17.3096C2.36716 16.9864 2.20557 16.5979 2.20557 16.144V3.85599C2.20557 3.39891 2.36716 3.00761 2.69036 2.6821C3.01357 2.3566 3.40209 2.19385 3.85594 2.19385H16.144C16.6011 2.19385 16.9924 2.3566 17.3179 2.6821C17.6434 3.00761 17.8061 3.39891 17.8061 3.85599V12.5471L12.5471 17.7944H3.85594ZM6.35594 11.356V9.97647H9.81517V11.356H6.35594ZM6.35594 7.89314V6.50183H13.644V7.89314H6.35594Z" fill="#4A5568"/>
</svg>
