<svg width="24" height="24" viewBox="0 0 24 24" fill="none" xmlns="http://www.w3.org/2000/svg">
<path d="M18.5 8C18.33 8 18.16 8.02 18 8.05V4.5C17.9999 4.12592 17.9158 3.75663 17.7539 3.41937C17.5921 3.08211 17.3566 2.78547 17.0649 2.55132C16.7731 2.31716 16.4326 2.15146 16.0683 2.06643C15.704 1.98139 15.3253 1.9792 14.96 2.06C14.8568 1.48259 14.5538 0.95987 14.1041 0.583284C13.6544 0.206698 13.0866 0.000228865 12.5 0C11.44 0 10.54 0.66 10.17 1.59C9.7985 1.48666 9.40814 1.47065 9.02943 1.54323C8.65072 1.61581 8.29394 1.77501 7.98697 2.00838C7.68001 2.24175 7.43119 2.54297 7.25997 2.88847C7.08875 3.23397 6.99978 3.6144 7 4V4.55C6.63673 4.47585 6.26152 4.48342 5.90154 4.57218C5.54156 4.66093 5.20583 4.82864 4.91866 5.06316C4.6315 5.29768 4.40009 5.59313 4.2412 5.92812C4.08231 6.26311 3.99992 6.62924 4 7V15.5C4 20.19 7.81 24 12.5 24C17.19 24 21 20.19 21 15.5V10.5C21 9.83696 20.7366 9.20107 20.2678 8.73223C19.7989 8.26339 19.163 8 18.5 8ZM19 15.5C19 17.2239 18.3152 18.8772 17.0962 20.0962C15.8772 21.3152 14.2239 22 12.5 22C10.7761 22 9.12279 21.3152 7.90381 20.0962C6.68482 18.8772 6 17.2239 6 15.5V7C6 6.72 6.22 6.5 6.5 6.5C6.78 6.5 7 6.72 7 7V12H9V4C9 3.72 9.22 3.5 9.5 3.5C9.78 3.5 10 3.72 10 4V11H12V2.5C12 2.22 12.22 2 12.5 2C12.78 2 13 2.22 13 2.5V11H15V4.5C15 4.22 15.22 4 15.5 4C15.78 4 16 4.22 16 4.5V13.42C14.23 14.19 13 15.95 13 18H15C15 16.34 16.34 15 18 15V10.5C18 10.22 18.22 10 18.5 10C18.78 10 19 10.22 19 10.5V15.5Z" fill="#262626"/>
</svg>
