<svg xmlns="http://www.w3.org/2000/svg" width="14" height="14" viewBox="0 0 14 14" fill="none">
  <path d="M9.91667 1.75H2.91667C2.60725 1.75 2.3105 1.87292 2.09171 2.09171C1.87292 2.3105 1.75 2.60725 1.75 2.91667V11.0833C1.75 11.3928 1.87292 11.6895 2.09171 11.9083C2.3105 12.1271 2.60725 12.25 2.91667 12.25H11.0833C11.725 12.25 12.25 11.725 12.25 11.0833V4.08333L9.91667 1.75ZM11.0833 11.0833H2.91667V2.91667H9.4325L11.0833 4.5675V11.0833ZM7 7C6.03167 7 5.25 7.78167 5.25 8.75C5.25 9.71833 6.03167 10.5 7 10.5C7.96833 10.5 8.75 9.71833 8.75 8.75C8.75 7.78167 7.96833 7 7 7ZM3.5 3.5H8.75V5.83333H3.5V3.5Z" fill="white"/>
</svg>
