<svg width="20" height="20" viewBox="0 0 20 20" fill="none" xmlns="http://www.w3.org/2000/svg">
<path d="M13.7502 10.8332C12.7502 10.8332 11.1918 11.1165 10.0002 11.6665C8.8085 11.1082 7.25016 10.8332 6.25016 10.8332C4.44183 10.8332 0.833496 11.7332 0.833496 13.5415V15.8332H19.1668V13.5415C19.1668 11.7332 15.5585 10.8332 13.7502 10.8332ZM10.4168 14.5832H2.0835V13.5415C2.0835 13.0915 4.21683 12.0832 6.25016 12.0832C8.2835 12.0832 10.4168 13.0915 10.4168 13.5415V14.5832ZM17.9168 14.5832H11.6668V13.5415C11.6668 13.1582 11.5002 12.8248 11.2335 12.5248C11.9668 12.2748 12.8668 12.0832 13.7502 12.0832C15.7835 12.0832 17.9168 13.0915 17.9168 13.5415V14.5832ZM6.25016 9.99984C7.8585 9.99984 9.16683 8.6915 9.16683 7.08317C9.16683 5.47484 7.8585 4.1665 6.25016 4.1665C4.64183 4.1665 3.3335 5.47484 3.3335 7.08317C3.3335 8.6915 4.64183 9.99984 6.25016 9.99984ZM6.25016 5.4165C7.16683 5.4165 7.91683 6.1665 7.91683 7.08317C7.91683 7.99984 7.16683 8.74984 6.25016 8.74984C5.3335 8.74984 4.5835 7.99984 4.5835 7.08317C4.5835 6.1665 5.3335 5.4165 6.25016 5.4165ZM13.7502 9.99984C15.3585 9.99984 16.6668 8.6915 16.6668 7.08317C16.6668 5.47484 15.3585 4.1665 13.7502 4.1665C12.1418 4.1665 10.8335 5.47484 10.8335 7.08317C10.8335 8.6915 12.1418 9.99984 13.7502 9.99984ZM13.7502 5.4165C14.6668 5.4165 15.4168 6.1665 15.4168 7.08317C15.4168 7.99984 14.6668 8.74984 13.7502 8.74984C12.8335 8.74984 12.0835 7.99984 12.0835 7.08317C12.0835 6.1665 12.8335 5.4165 13.7502 5.4165Z" fill="#2D3748"/>
</svg>
