<svg width="40" height="40" viewBox="0 0 40 40" fill="none" xmlns="http://www.w3.org/2000/svg">
<path d="M19.1667 15.8333H20.8334V17.5H19.1667V15.8333ZM19.1667 19.1667H20.8334V24.1667H19.1667V19.1667ZM20.0001 11.6667C15.4001 11.6667 11.6667 15.4 11.6667 20C11.6667 24.6 15.4001 28.3333 20.0001 28.3333C24.6001 28.3333 28.3334 24.6 28.3334 20C28.3334 15.4 24.6001 11.6667 20.0001 11.6667ZM20.0001 26.6667C16.3251 26.6667 13.3334 23.675 13.3334 20C13.3334 16.325 16.3251 13.3333 20.0001 13.3333C23.6751 13.3333 26.6667 16.325 26.6667 20C26.6667 23.675 23.6751 26.6667 20.0001 26.6667Z" fill="#4A5568"/>
</svg>
