<svg width="15" height="14" viewBox="0 0 15 14" fill="none" xmlns="http://www.w3.org/2000/svg">
<path d="M2.77435 6.99967C2.77435 6.00217 3.58518 5.19134 4.58268 5.19134H6.91602V4.08301H4.58268C2.97268 4.08301 1.66602 5.38967 1.66602 6.99967C1.66602 8.60967 2.97268 9.91634 4.58268 9.91634H6.91602V8.80801H4.58268C3.58518 8.80801 2.77435 7.99717 2.77435 6.99967ZM5.16602 7.58301H9.83268V6.41634H5.16602V7.58301ZM10.416 4.08301H8.08268V5.19134H10.416C11.4135 5.19134 12.2243 6.00217 12.2243 6.99967C12.2243 7.99717 11.4135 8.80801 10.416 8.80801H8.08268V9.91634H10.416C12.026 9.91634 13.3327 8.60967 13.3327 6.99967C13.3327 5.38967 12.026 4.08301 10.416 4.08301Z" fill="#4A8DB7"/>
</svg>
