<?xml version="1.0" encoding="utf-8"?>
<svg xmlns="http://www.w3.org/2000/svg" xmlns:xlink="http://www.w3.org/1999/xlink" style="margin: auto; background: none; display: block; shape-rendering: auto;" width="154px" height="154px" viewBox="0 0 100 100" preserveAspectRatio="xMidYMid">
<g transform="translate(50 50)">
<g>
<animateTransform attributeName="transform" type="rotate" values="0;45" keyTimes="0;1" dur="0.36764705882352944s" repeatCount="indefinite"></animateTransform><path d="M23.103030104295843 -6.5 L29.103030104295843 -6.5 L29.103030104295843 6.5 L23.103030104295843 6.5 A24 24 0 0 1 20.9325033304171 11.740115174991983 L20.9325033304171 11.740115174991983 L25.175144017536383 15.982755862111269 L15.98275586211127 25.175144017536383 L11.740115174991985 20.9325033304171 A24 24 0 0 1 6.5 23.103030104295843 L6.5 23.103030104295843 L6.500000000000001 29.103030104295843 L-6.499999999999996 29.103030104295843 L-6.4999999999999964 23.103030104295843 A24 24 0 0 1 -11.740115174991978 20.932503330417102 L-11.740115174991978 20.932503330417102 L-15.982755862111262 25.17514401753639 L-25.175144017536386 15.982755862111267 L-20.932503330417102 11.740115174991981 A24 24 0 0 1 -23.10303010429584 6.500000000000006 L-23.10303010429584 6.500000000000006 L-29.10303010429584 6.500000000000007 L-29.10303010429584 -6.5 L-23.10303010429584 -6.500000000000001 A24 24 0 0 1 -20.932503330417106 -11.740115174991976 L-20.932503330417106 -11.740115174991976 L-25.17514401753639 -15.98275586211126 L-15.982755862111267 -25.175144017536383 L-11.740115174991981 -20.9325033304171 A24 24 0 0 1 -6.500000000000007 -23.10303010429584 L-6.500000000000007 -23.10303010429584 L-6.500000000000008 -29.10303010429584 L6.499999999999999 -29.103030104295843 L6.5 -23.103030104295843 A24 24 0 0 1 11.740115174991974 -20.932503330417106 L11.740115174991974 -20.932503330417106 L15.982755862111258 -25.17514401753639 L25.175144017536383 -15.982755862111269 L20.9325033304171 -11.740115174991983 A24 24 0 0 1 23.10303010429584 -6.500000000000009 M0 -13A13 13 0 1 0 0 13 A13 13 0 1 0 0 -13" fill="#4A8DB7"></path></g></g>
<!-- [ldio] generated by https://loading.io/ --></svg>