<?xml version="1.0" standalone="no"?>
<!DOCTYPE svg PUBLIC "-//W3C//DTD SVG 20010904//EN"
 "http://www.w3.org/TR/2001/REC-SVG-20010904/DTD/svg10.dtd">
<svg version="1.0" xmlns="http://www.w3.org/2000/svg"
 width="201.000000pt" height="201.000000pt" viewBox="0 0 201.000000 201.000000"
 preserveAspectRatio="xMidYMid meet">

<g transform="translate(0.000000,201.000000) scale(0.100000,-0.100000)"
fill="#000000" stroke="none">
<path d="M1032 1573 c2 -12 14 -19 37 -21 43 -4 62 4 55 23 -4 10 -20 15 -51
15 -37 0 -44 -3 -41 -17z"/>
<path d="M1026 1502 c-3 -5 -8 -54 -12 -110 -4 -56 -10 -102 -15 -102 -4 0
-54 -22 -111 -48 -57 -27 -125 -58 -151 -68 -27 -10 -62 -34 -78 -52 l-29 -33
0 -219 c0 -207 1 -220 19 -230 51 -27 51 -26 51 208 l0 218 28 26 c25 24 243
128 268 128 11 0 10 -52 0 -69 -3 -4 -33 -19 -67 -32 -81 -32 -128 -73 -139
-124 -5 -22 -10 -126 -10 -231 0 -205 0 -206 53 -219 l27 -7 0 218 c0 196 2
222 19 249 14 24 47 44 155 92 l137 61 -3 -40 c-3 -39 -3 -40 -86 -75 -60 -26
-91 -46 -110 -71 l-27 -35 0 -221 0 -221 35 -17 35 -18 5 218 c6 248 10 263
80 301 55 29 220 101 232 101 4 0 8 -26 8 -58 l0 -58 -52 -24 c-151 -66 -138
-57 -138 -100 0 -27 4 -40 13 -40 13 0 59 19 99 41 32 17 38 10 38 -50 l0 -59
-75 -33 -75 -33 0 -78 0 -79 28 15 c15 9 68 34 117 55 l90 40 3 244 2 244 -38
17 c-39 18 -39 19 -46 84 -3 37 -6 95 -6 130 l0 62 -49 0 c-58 0 -61 -6 -61
-117 0 -77 -7 -90 -36 -69 -16 12 -19 31 -22 155 l-4 141 -49 0 c-26 0 -50 -4
-53 -8z"/>
<path d="M1207 1484 c-21 -21 -5 -34 44 -34 43 0 50 3 47 18 -2 12 -14 18 -43
20 -23 2 -44 0 -48 -4z"/>
</g>
</svg>
