<svg width="24" height="24" viewBox="0 0 24 24" fill="none" xmlns="http://www.w3.org/2000/svg">
<path d="M4 21C3.16667 21 2.45833 20.7083 1.875 20.125C1.29167 19.5417 1 18.8333 1 18C1 17.5667 1.08333 17.154 1.25 16.762C1.41667 16.37 1.66667 16.0327 2 15.75V11H4V5H12L16.7 16.075C16.8 16.3083 16.875 16.5417 16.925 16.775C16.975 17.0083 17 17.25 17 17.5C17 18.4667 16.6583 19.2917 15.975 19.975C15.2917 20.6583 14.4667 21 13.5 21C12.8167 21 12.1873 20.821 11.612 20.463C11.0367 20.105 10.608 19.6173 10.326 19H6.826C6.60933 19.6 6.24267 20.0833 5.726 20.45C5.20933 20.8167 4.634 21 4 21ZM18 20V4H20V18H23V20H18ZM4 19C4.28333 19 4.521 18.904 4.713 18.712C4.905 18.52 5.00067 18.2827 5 18C5 17.7167 4.904 17.479 4.712 17.287C4.52 17.095 4.28267 16.9993 4 17C3.71667 17 3.479 17.096 3.287 17.288C3.095 17.48 2.99933 17.7173 3 18C3 18.2833 3.096 18.521 3.288 18.713C3.48 18.905 3.71733 19.0007 4 19ZM13.5 19C13.9167 19 14.271 18.854 14.563 18.562C14.855 18.27 15.0007 17.916 15 17.5C15 17.0833 14.854 16.729 14.562 16.437C14.27 16.145 13.916 15.9993 13.5 16C13.0833 16 12.729 16.146 12.437 16.438C12.145 16.73 11.9993 17.084 12 17.5C12 17.9167 12.146 18.271 12.438 18.563C12.73 18.855 13.084 19.0007 13.5 19ZM8.925 14H13.65L10.675 7H6V11L8.925 14Z" fill="#2D3748"/>
</svg>
