<svg width="24" height="24" viewBox="0 0 24 24" fill="none" xmlns="http://www.w3.org/2000/svg">
<path d="M13 23C12.7167 23 12.479 22.904 12.287 22.712C12.095 22.52 11.9993 22.2827 12 22C12 21.7167 12.096 21.479 12.288 21.287C12.48 21.095 12.7173 20.9993 13 21H19V20H17C16.45 20 15.979 19.804 15.587 19.412C15.195 19.02 14.9993 18.5493 15 18V14C15 13.45 15.196 12.979 15.588 12.587C15.98 12.195 16.4507 11.9993 17 12H19V11C19 9.06667 18.3167 7.41667 16.95 6.05C15.5833 4.68333 13.9333 4 12 4C10.0667 4 8.41667 4.68333 7.05 6.05C5.68334 7.41667 5 9.06667 5 11V12H7C7.55 12 8.021 12.196 8.413 12.588C8.805 12.98 9.00067 13.4507 9 14V18C9 18.55 8.804 19.021 8.412 19.413C8.02 19.805 7.54934 20.0007 7 20H5C4.45 20 3.979 19.804 3.587 19.412C3.195 19.02 2.99934 18.5493 3 18V11C3 9.76667 3.23767 8.604 3.713 7.512C4.18834 6.42 4.834 5.466 5.65 4.65C6.46667 3.83333 7.421 3.18733 8.513 2.712C9.605 2.23667 10.7673 1.99933 12 2C13.2333 2 14.396 2.23767 15.488 2.713C16.58 3.18833 17.534 3.834 18.35 4.65C19.1667 5.46667 19.8127 6.421 20.288 7.513C20.7633 8.605 21.0007 9.76733 21 11V21C21 21.55 20.804 22.021 20.412 22.413C20.02 22.805 19.5493 23.0007 19 23H13Z" fill="#2D3748"/>
</svg>
