<svg width="24" height="24" viewBox="0 0 24 24" fill="none" xmlns="http://www.w3.org/2000/svg">
<path d="M6.75 10H11.25C11.45 10 11.625 9.925 11.775 9.775C11.925 9.625 12 9.45 12 9.25C12 9.05 11.925 8.875 11.775 8.725C11.625 8.575 11.45 8.5 11.25 8.5H6.75C6.55 8.5 6.375 8.575 6.225 8.725C6.075 8.875 6 9.05 6 9.25C6 9.45 6.075 9.625 6.225 9.775C6.375 9.925 6.55 10 6.75 10ZM6.75 7.5H11.25C11.45 7.5 11.625 7.425 11.775 7.275C11.925 7.125 12 6.95 12 6.75C12 6.55 11.925 6.375 11.775 6.225C11.625 6.075 11.45 6 11.25 6H6.75C6.55 6 6.375 6.075 6.225 6.225C6.075 6.375 6 6.55 6 6.75C6 6.95 6.075 7.125 6.225 7.275C6.375 7.425 6.55 7.5 6.75 7.5ZM17 11V5H18C18.55 5 19.021 5.196 19.413 5.588C19.805 5.98 20.0007 6.45067 20 7H22C22.2833 7 22.521 7.096 22.713 7.288C22.905 7.48 23.0007 7.71733 23 8C23 8.28333 22.904 8.521 22.712 8.713C22.52 8.905 22.2827 9.00067 22 9H20C20 9.55 19.804 10.021 19.412 10.413C19.02 10.805 18.5493 11.0007 18 11H17ZM12 15.5H6V13C4.9 13 3.95833 12.6083 3.175 11.825C2.39167 11.0417 2 10.1 2 9V7C2 5.9 2.39167 4.95833 3.175 4.175C3.95833 3.39167 4.9 3 6 3H14C14.55 3 15.021 3.196 15.413 3.588C15.805 3.98 16.0007 4.45067 16 5V11C16 11.55 15.804 12.021 15.412 12.413C15.02 12.805 14.5493 13.0007 14 13H12V15.5ZM5.5 21C5.08333 21 4.729 20.854 4.437 20.562C4.145 20.27 3.99933 19.916 4 19.5V18C4 17.5833 4.146 17.229 4.438 16.937C4.73 16.645 5.084 16.4993 5.5 16.5H12.5C12.9167 16.5 13.271 16.646 13.563 16.938C13.855 17.23 14.0007 17.584 14 18V19.5C14 19.9167 13.854 20.271 13.562 20.563C13.27 20.855 12.916 21.0007 12.5 21H5.5Z" fill="#2D3748"/>
</svg>
