<svg width="24" height="24" viewBox="0 0 24 24" fill="none" xmlns="http://www.w3.org/2000/svg">
<path d="M6 20C5.16667 20 4.45833 19.7083 3.875 19.125C3.29167 18.5417 3 17.8333 3 17C2.45 17 1.979 16.804 1.587 16.412C1.195 16.02 0.999335 15.5493 1 15V6C1 5.45 1.196 4.979 1.588 4.587C1.98 4.195 2.45067 3.99934 3 4H15C15.55 4 16.021 4.196 16.413 4.588C16.805 4.98 17.0007 5.45067 17 6V8H19.5C19.6667 8 19.8167 8.03334 19.95 8.1C20.0833 8.16667 20.2 8.26667 20.3 8.4L22.8 11.725C22.8667 11.8083 22.9167 11.9 22.95 12C22.9833 12.1 23 12.2083 23 12.325V16C23 16.2833 22.904 16.521 22.712 16.713C22.52 16.905 22.2827 17.0007 22 17H21C21 17.8333 20.7083 18.5417 20.125 19.125C19.5417 19.7083 18.8333 20 18 20C17.1667 20 16.4583 19.7083 15.875 19.125C15.2917 18.5417 15 17.8333 15 17H9C9 17.8333 8.70834 18.5417 8.125 19.125C7.54167 19.7083 6.83334 20 6 20ZM6 18C6.28334 18 6.521 17.904 6.713 17.712C6.905 17.52 7.00067 17.2827 7 17C7 16.7167 6.904 16.479 6.712 16.287C6.52 16.095 6.28267 15.9993 6 16C5.71667 16 5.479 16.096 5.287 16.288C5.095 16.48 4.99934 16.7173 5 17C5 17.2833 5.096 17.521 5.288 17.713C5.48 17.905 5.71734 18.0007 6 18ZM18 18C18.2833 18 18.521 17.904 18.713 17.712C18.905 17.52 19.0007 17.2827 19 17C19 16.7167 18.904 16.479 18.712 16.287C18.52 16.095 18.2827 15.9993 18 16C17.7167 16 17.479 16.096 17.287 16.288C17.095 16.48 16.9993 16.7173 17 17C17 17.2833 17.096 17.521 17.288 17.713C17.48 17.905 17.7173 18.0007 18 18ZM17 13H21.25L19 10H17V13Z" fill="#2D3748"/>
</svg>
