<svg width="24" height="24" viewBox="0 0 24 24" fill="none" xmlns="http://www.w3.org/2000/svg">
<path d="M12 10C10.9 10 9.95833 9.60833 9.175 8.825C8.39167 8.04167 8 7.1 8 6C8 4.9 8.39167 3.95833 9.175 3.175C9.95833 2.39167 10.9 2 12 2C13.1 2 14.0417 2.39167 14.825 3.175C15.6083 3.95833 16 4.9 16 6C16 7.1 15.6083 8.04167 14.825 8.825C14.0417 9.60833 13.1 10 12 10ZM9.75 20C9.53333 20 9.35433 19.929 9.213 19.787C9.07167 19.645 9.00067 19.466 9 19.25C9 19.0333 9.071 18.8543 9.213 18.713C9.355 18.5717 9.534 18.5007 9.75 18.5H11.65L10.95 20H9.75ZM4 22V15.225C4 14.6583 4.14167 14.1377 4.425 13.663C4.70833 13.1883 5.1 12.8173 5.6 12.55C6.6 12.05 7.63767 11.6667 8.713 11.4C9.78833 11.1333 10.884 11 12 11C12.5 11 13.0043 11.025 13.513 11.075C14.0217 11.125 14.5173 11.2083 15 11.325L12.575 16.5H9.75C8.98333 16.5 8.33333 16.7667 7.8 17.3C7.26667 17.8333 7 18.4833 7 19.25C7 20.0167 7.26667 20.6667 7.8 21.2C8.33333 21.7333 8.98333 22 9.75 22H4ZM16.95 22V11.925C17.2 12.0083 17.446 12.1043 17.688 12.213C17.93 12.3217 18.1673 12.434 18.4 12.55C18.9 12.8167 19.2917 13.1877 19.575 13.663C19.8583 14.1383 20 14.659 20 15.225V20C20 20.55 19.8043 21.021 19.413 21.413C19.0217 21.805 18.5507 22.0007 18 22H16.95Z" fill="#2D3748"/>
</svg>
