<svg width="24" height="24" viewBox="0 0 24 24" fill="none" xmlns="http://www.w3.org/2000/svg">
<path d="M9 15.0002H5.90001C5.50001 15.0002 5.20401 14.8212 5.01201 14.4632C4.82001 14.1052 4.841 13.7592 5.075 13.4252L12.55 2.67518C12.7167 2.44185 12.9333 2.27952 13.2 2.18818C13.4667 2.09685 13.7417 2.10085 14.025 2.20018C14.3083 2.30018 14.5167 2.47518 14.65 2.72518C14.7833 2.97518 14.8333 3.24185 14.8 3.52518L14 10.0002H17.875C18.3083 10.0002 18.6127 10.1919 18.788 10.5752C18.9633 10.9585 18.909 11.3169 18.625 11.6502L10.4 21.5002C10.2167 21.7169 9.99167 21.8585 9.72501 21.9252C9.45834 21.9919 9.2 21.9669 8.95 21.8502C8.7 21.7335 8.50401 21.5545 8.36201 21.3132C8.22001 21.0719 8.166 20.8092 8.2 20.5252L9 15.0002Z" fill="#2D3748"/>
</svg>
