<svg width="24" height="24" viewBox="0 0 24 24" fill="none" xmlns="http://www.w3.org/2000/svg">
<path d="M7 23C6.66667 22.3333 6.41667 21.5167 6.25 20.55C6.08333 19.5833 6 18.6 6 17.6C6 15.95 6.18333 14.5873 6.55 13.512C6.91667 12.4367 7.4 11.5993 8 11V6L11 1H11.5V6.15C11.3333 6.23333 11.2083 6.35 11.125 6.5C11.0417 6.65 11 6.81667 11 7C11 7.28333 11.096 7.521 11.288 7.713C11.48 7.905 11.7173 8.00067 12 8C12.2833 8 12.521 7.904 12.713 7.712C12.905 7.52 13.0007 7.28267 13 7C13 6.81667 12.9583 6.65 12.875 6.5C12.7917 6.35 12.6667 6.23333 12.5 6.15V1H13L16 6V11C16.6167 11.6 17.1043 12.4377 17.463 13.513C17.8217 14.5883 18.0007 15.9507 18 17.6C18 18.6 17.9167 19.5833 17.75 20.55C17.5833 21.5167 17.3333 22.3333 17 23C16.3 22.7833 15.7417 22.3873 15.325 21.812C14.9083 21.2367 14.7083 20.5827 14.725 19.85C14.725 19.4333 14.771 18.9833 14.863 18.5C14.955 18.0167 15.0007 17.5333 15 17.05C15 16.0833 14.7373 15.0667 14.212 14C13.6867 12.9333 12.9493 11.9333 12 11C11.0667 11.9333 10.3333 12.9333 9.8 14C9.26667 15.0667 9 16.0833 9 17.05C9 17.5333 9.05 18.0167 9.15 18.5C9.25 18.9833 9.30833 19.4333 9.325 19.85C9.325 20.5833 9.11267 21.2417 8.688 21.825C8.26333 22.4083 7.70067 22.8 7 23Z" fill="#2D3748"/>
</svg>
