<svg width="24" height="24" viewBox="0 0 24 24" fill="none" xmlns="http://www.w3.org/2000/svg">
<path d="M9 12C9.28333 12 9.521 11.904 9.713 11.712C9.905 11.52 10.0007 11.2827 10 11V8C10 7.71667 9.904 7.479 9.712 7.287C9.52 7.095 9.28267 6.99933 9 7C8.71667 7 8.479 7.096 8.287 7.288C8.095 7.48 7.99933 7.71733 8 8V11C8 11.2833 8.096 11.521 8.288 11.713C8.48 11.905 8.71733 12.0007 9 12ZM10 18H14V16C14 15.45 13.804 14.979 13.412 14.587C13.02 14.195 12.5493 13.9993 12 14C11.45 14 10.979 14.196 10.587 14.588C10.195 14.98 9.99933 15.4507 10 16V18ZM15 12C15.2833 12 15.521 11.904 15.713 11.712C15.905 11.52 16.0007 11.2827 16 11V8C16 7.71667 15.904 7.479 15.712 7.287C15.52 7.095 15.2827 6.99933 15 7C14.7167 7 14.479 7.096 14.287 7.288C14.095 7.48 13.9993 7.71733 14 8V11C14 11.2833 14.096 11.521 14.288 11.713C14.48 11.905 14.7173 12.0007 15 12ZM12 22C10.6167 22 9.31667 21.7373 8.1 21.212C6.88333 20.6867 5.825 19.9743 4.925 19.075C4.025 18.175 3.31267 17.1167 2.788 15.9C2.26333 14.6833 2.00067 13.3833 2 12C2 10.6167 2.26267 9.31667 2.788 8.1C3.31333 6.88333 4.02567 5.825 4.925 4.925C5.825 4.025 6.88333 3.31267 8.1 2.788C9.31667 2.26333 10.6167 2.00067 12 2C13.3833 2 14.6833 2.26267 15.9 2.788C17.1167 3.31333 18.175 4.02567 19.075 4.925C19.975 5.825 20.6877 6.88333 21.213 8.1C21.7383 9.31667 22.0007 10.6167 22 12C22 13.3833 21.7373 14.6833 21.212 15.9C20.6867 17.1167 19.9743 18.175 19.075 19.075C18.175 19.975 17.1167 20.6877 15.9 21.213C14.6833 21.7383 13.3833 22.0007 12 22Z" fill="#2D3748"/>
</svg>
