<svg width="24" height="24" viewBox="0 0 24 24" fill="none" xmlns="http://www.w3.org/2000/svg">
<path d="M4 17V5H2V3H6V15H21V17H4ZM6 22C5.45 22 4.979 21.804 4.587 21.412C4.195 21.02 3.99933 20.5493 4 20C4 19.45 4.196 18.979 4.588 18.587C4.98 18.195 5.45067 17.9993 6 18C6.55 18 7.021 18.196 7.413 18.588C7.805 18.98 8.00067 19.4507 8 20C8 20.55 7.804 21.021 7.412 21.413C7.02 21.805 6.54933 22.0007 6 22ZM7 14V8H13V14H7ZM14 14V8H20V14H14ZM19 22C18.45 22 17.979 21.804 17.587 21.412C17.195 21.02 16.9993 20.5493 17 20C17 19.45 17.196 18.979 17.588 18.587C17.98 18.195 18.4507 17.9993 19 18C19.55 18 20.021 18.196 20.413 18.588C20.805 18.98 21.0007 19.4507 21 20C21 20.55 20.804 21.021 20.412 21.413C20.02 21.805 19.5493 22.0007 19 22Z" fill="#2D3748"/>
</svg>
