<svg width="24" height="24" viewBox="0 0 24 24" fill="none" xmlns="http://www.w3.org/2000/svg">
<path d="M8 20.9999H4C3.45 20.9999 2.979 20.8039 2.587 20.4119C2.195 20.0199 1.99934 19.5492 2 18.9999V8.3499C2 7.93324 2.11267 7.55824 2.338 7.2249C2.56334 6.89157 2.86733 6.6499 3.25 6.4999L11.25 3.2999C11.4833 3.1999 11.7333 3.1499 12 3.1499C12.2667 3.1499 12.5167 3.1999 12.75 3.2999L20.75 6.4999C21.1333 6.6499 21.4377 6.89157 21.663 7.2249C21.8883 7.55824 22.0007 7.93324 22 8.3499V18.9999C22 19.5499 21.804 20.0209 21.412 20.4129C21.02 20.8049 20.5493 21.0006 20 20.9999H16V12.9999H8V20.9999ZM9 20.9999V18.9999H11V20.9999H9ZM11 17.9999V15.9999H13V17.9999H11ZM13 20.9999V18.9999H15V20.9999H13Z" fill="#2D3748"/>
</svg>
