<svg width="14" height="15" viewBox="0 0 14 15" fill="none" xmlns="http://www.w3.org/2000/svg">
<path d="M12.4307 2.16683V10.1668H4.43066V2.16683H12.4307ZM12.4307 0.833496H4.43066C3.69733 0.833496 3.09733 1.4335 3.09733 2.16683V10.1668C3.09733 10.9002 3.69733 11.5002 4.43066 11.5002H12.4307C13.164 11.5002 13.764 10.9002 13.764 10.1668V2.16683C13.764 1.4335 13.164 0.833496 12.4307 0.833496ZM6.764 7.28016L7.89066 8.78683L9.544 6.72016L11.764 9.50016H5.09733L6.764 7.28016ZM0.430664 3.50016V12.8335C0.430664 13.5668 1.03066 14.1668 1.764 14.1668H11.0973V12.8335H1.764V3.50016H0.430664Z" fill="#4A8DB7"/>
</svg>
