<svg width="40" height="40" viewBox="0 0 40 40" fill="none" xmlns="http://www.w3.org/2000/svg">
  <path
    d="M20 16.6667C20.9167 16.6667 21.6667 15.9167 21.6667 15C21.6667 14.0833 20.9167 13.3333 20 13.3333C19.0834 13.3333 18.3334 14.0833 18.3334 15C18.3334 15.9167 19.0834 16.6667 20 16.6667ZM20 18.3333C19.0834 18.3333 18.3334 19.0833 18.3334 20C18.3334 20.9167 19.0834 21.6667 20 21.6667C20.9167 21.6667 21.6667 20.9167 21.6667 20C21.6667 19.0833 20.9167 18.3333 20 18.3333ZM20 23.3333C19.0834 23.3333 18.3334 24.0833 18.3334 25C18.3334 25.9167 19.0834 26.6667 20 26.6667C20.9167 26.6667 21.6667 25.9167 21.6667 25C21.6667 24.0833 20.9167 23.3333 20 23.3333Z"
    fill="#4A5568" />
</svg>
