<svg width="20" height="20" viewBox="0 0 20 20" fill="none" xmlns="http://www.w3.org/2000/svg">
    <g id="Notification">
        <path id="Vector"
            d="M16.0748 14.408L14.9998 13.333V9.16634C14.9998 6.60801 13.6331 4.46634 11.2498 3.89967V3.33301C11.2498 2.64134 10.6915 2.08301 9.9998 2.08301C9.30813 2.08301 8.7498 2.64134 8.7498 3.33301V3.89967C6.35813 4.46634 4.9998 6.59967 4.9998 9.16634V13.333L3.9248 14.408C3.3998 14.933 3.76647 15.833 4.50813 15.833H15.4831C16.2331 15.833 16.5998 14.933 16.0748 14.408ZM13.3331 14.1663H6.66647V9.16634C6.66647 7.09967 7.9248 5.41634 9.9998 5.41634C12.0748 5.41634 13.3331 7.09967 13.3331 9.16634V14.1663ZM9.9998 18.333C10.9165 18.333 11.6665 17.583 11.6665 16.6663H8.33313C8.33313 17.1084 8.50873 17.5323 8.82129 17.8449C9.13385 18.1574 9.55777 18.333 9.9998 18.333Z"
            fill="#2D3748" />
    </g>
</svg>