<svg width="40" height="40" viewBox="0 0 40 40" fill="none" xmlns="http://www.w3.org/2000/svg">
    <rect width="40" height="40" rx="6" fill="#DAE1FF" />
    <path
        d="M29.65 15.65L26.86 12.86C26.7905 12.7886 26.7012 12.7395 26.6036 12.7191C26.506 12.6987 26.4045 12.7079 26.3122 12.7455C26.2198 12.783 26.1408 12.8473 26.0852 12.9301C26.0296 13.0129 25.9999 13.1103 26 13.21V15H12C11.45 15 11 15.45 11 16C11 16.55 11.45 17 12 17H26V18.79C26 19.24 26.54 19.46 26.85 19.14L29.64 16.35C29.84 16.16 29.84 15.84 29.65 15.65ZM28 23H14V21.21C14 20.76 13.46 20.54 13.15 20.86L10.36 23.65C10.16 23.84 10.16 24.16 10.35 24.35L13.14 27.14C13.46 27.46 14 27.24 14 26.79V25H28C28.55 25 29 24.55 29 24C29 23.45 28.55 23 28 23Z"
        fill="#4A8DB7" />
</svg>