<svg width="4" height="14" viewBox="0 0 4 14" fill="none" xmlns="http://www.w3.org/2000/svg">
<path d="M1.99992 3.66666C2.91659 3.66666 3.66659 2.91666 3.66659 1.99999C3.66659 1.08333 2.91659 0.333328 1.99992 0.333328C1.08325 0.333328 0.333252 1.08333 0.333252 1.99999C0.333252 2.91666 1.08325 3.66666 1.99992 3.66666ZM1.99992 5.33333C1.08325 5.33333 0.333252 6.08333 0.333252 6.99999C0.333252 7.91666 1.08325 8.66666 1.99992 8.66666C2.91659 8.66666 3.66659 7.91666 3.66659 6.99999C3.66659 6.08333 2.91659 5.33333 1.99992 5.33333ZM1.99992 10.3333C1.08325 10.3333 0.333252 11.0833 0.333252 12C0.333252 12.9167 1.08325 13.6667 1.99992 13.6667C2.91659 13.6667 3.66659 12.9167 3.66659 12C3.66659 11.0833 2.91659 10.3333 1.99992 10.3333Z" fill="#4A5568"/>
</svg>
