<!DOCTYPE svg PUBLIC "-//W3C//DTD SVG 1.1//EN" "http://www.w3.org/Graphics/SVG/1.1/DTD/svg11.dtd">
<!-- Uploaded to: SVG Repo, www.svgrepo.com, Transformed by: SVG Repo Mixer Tools -->
<svg fill="#000000" height="800px" width="800px" version="1.1" xmlns="http://www.w3.org/2000/svg" viewBox="0 0 463.00 463.00" xmlns:xlink="http://www.w3.org/1999/xlink" enable-background="new 0 0 463 463" stroke="#000000" stroke-width="13.89">
<g id="SVGRepo_bgCarrier" stroke-width="0"/>
<g id="SVGRepo_tracerCarrier" stroke-linecap="round" stroke-linejoin="round"/>
<g id="SVGRepo_iconCarrier"> <g> <path d="M423.5,0h-384C17.72,0,0,17.72,0,39.5v384C0,445.28,17.72,463,39.5,463h384c21.78,0,39.5-17.72,39.5-39.5v-384 C463,17.72,445.28,0,423.5,0z M448,423.5c0,13.509-10.991,24.5-24.5,24.5h-384C25.991,448,15,437.009,15,423.5v-384 C15,25.991,25.991,15,39.5,15h384c13.509,0,24.5,10.991,24.5,24.5V423.5z"/> <path d="m139.5,243.338c-43.836,0-79.5,35.664-79.5,79.5s35.664,79.5 79.5,79.5 79.5-35.664 79.5-79.5-35.664-79.5-79.5-79.5zm0,144c-35.565,0-64.5-28.935-64.5-64.5s28.935-64.5 64.5-64.5 64.5,28.935 64.5,64.5-28.935,64.5-64.5,64.5z"/> <path d="m152.86,76.276c-2.814-4.785-7.809-7.641-13.36-7.641-5.551,0-10.545,2.856-13.36,7.641l-66.013,112.221c-2.854,4.853-2.889,10.667-0.094,15.555 2.795,4.886 7.825,7.804 13.454,7.804h132.025c5.63,0 10.66-2.917 13.455-7.804 2.795-4.887 2.759-10.702-0.095-15.555l-66.012-112.221zm53.087,120.328c-0.144,0.251-0.318,0.251-0.434,0.251h-132.026c-0.115,0-0.29,0-0.434-0.251-0.145-0.252-0.056-0.403 0.002-0.502l66.013-112.221c0.058-0.098 0.145-0.247 0.431-0.247s0.374,0.148 0.431,0.247l66.013,112.221c0.059,0.1 0.148,0.25 0.004,0.502z"/> <path d="m391.023,291.463l-37.711-5.48-16.865-34.172c-2.8-5.672-8.468-9.195-14.792-9.195-6.325,0-11.992,3.523-14.791,9.195l-16.864,34.172-37.711,5.48c-6.259,0.91-11.361,5.211-13.315,11.227-1.954,6.015-0.355,12.494 4.174,16.908l27.288,26.599-6.442,37.559c-1.069,6.234 1.445,12.416 6.562,16.133 2.892,2.101 6.274,3.167 9.68,3.167 2.622,0 5.256-0.632 7.691-1.912l33.73-17.733 33.729,17.733c5.598,2.941 12.254,2.461 17.371-1.255 5.117-3.718 7.631-9.899 6.562-16.133l-6.442-37.559 27.288-26.599c4.529-4.415 6.129-10.894 4.175-16.909-1.955-6.014-7.057-10.316-13.317-11.226zm-1.329,17.394l-30.111,29.352c-1.768,1.723-2.574,4.206-2.157,6.639l7.108,41.445c0.104,0.607-0.096,1.099-0.595,1.461-0.499,0.363-1.029,0.401-1.574,0.114l-37.22-19.567c-2.186-1.148-4.795-1.148-6.98,0l-37.22,19.567c-0.545,0.287-1.076,0.249-1.574-0.114-0.499-0.362-0.699-0.854-0.595-1.461l7.108-41.445c0.417-2.433-0.389-4.916-2.157-6.639l-30.111-29.352c-0.441-0.43-0.568-0.946-0.378-1.532s0.597-0.929 1.207-1.018l41.613-6.047c2.443-0.355 4.554-1.889 5.647-4.103l18.61-37.708c0.273-0.553 0.724-0.833 1.34-0.833 0.616,0 1.067,0.28 1.34,0.833l18.61,37.708c1.093,2.213 3.204,3.748 5.647,4.103l41.613,6.047c0.61,0.089 1.017,0.431 1.207,1.018s0.064,1.101-0.378,1.532z"/> <path d="m305.039,210.345c4.581,4.582 10.599,6.872 16.617,6.872 6.018,0 12.036-2.291 16.617-6.872l57.373-57.373c9.163-9.163 9.163-24.071 0-33.234l-57.373-57.373c-9.161-9.162-24.071-9.163-33.234,0l-57.373,57.373c-9.162,9.163-9.162,24.071 0,33.234l57.373,57.373zm-46.766-80l57.373-57.373c1.657-1.657 3.834-2.485 6.01-2.485 2.177,0 4.354,0.828 6.011,2.485l57.373,57.373c3.314,3.314 3.314,8.707 0,12.021l-57.373,57.373c-3.314,3.314-8.706,3.314-12.021,0l-57.372-57.373c-3.315-3.314-3.315-8.707-0.001-12.021z"/> </g> </g>
</svg>