<svg id="steps" xmlns="http://www.w3.org/2000/svg" width="35" height="35" viewBox="0 0 35 35">
  <rect id="Rectangle_302" data-name="Rectangle 302" width="35" height="35" rx="9" fill="#727cf5"/>
  <g id="footsteps-silhouette-variant" transform="translate(-63.688 4.295)">
    <path id="Path_35" data-name="Path 35" d="M83.291,19.812c1.425.488,2.682.8,4.49,1.354C87.087,29.939,78.791,26.455,83.291,19.812ZM90.7,11.753c-.094-2.634-.558-6.089-4.253-5.548-1.732.452-3.012,2.355-3.614,5.637a15.764,15.764,0,0,0,.252,5.857c.356,1.07.235,1,.618,1.208,1.481.334,2.948.7,4.441,1.08C89.659,18.916,90.9,13.227,90.7,11.753Zm-11.405-.2a15.774,15.774,0,0,0,.252-5.857C78.943,2.411,77.663.509,75.93.057c-3.7-.541-4.16,2.914-4.253,5.548-.207,1.474,1.04,7.162,2.557,8.234,1.493-.377,2.96-.746,4.442-1.08C79.058,12.556,78.937,12.621,79.293,11.551Zm-4.7,3.467c.694,8.773,8.99,5.289,4.489-1.354C77.659,14.152,76.4,14.463,74.594,15.018Z" transform="translate(0 0)" fill="#fff"/>
  </g>
</svg>
