<svg width="20" height="20" viewBox="0 0 20 20" fill="none" xmlns="http://www.w3.org/2000/svg">
  <path
    d="M10.4167 9.95825C10.8194 9.51381 11.1286 9.00686 11.3442 8.43742C11.5597 7.86797 11.6672 7.2777 11.6667 6.66659C11.6667 6.05547 11.5592 5.4652 11.3442 4.89575C11.1292 4.32631 10.82 3.81936 10.4167 3.37492C11.25 3.48603 11.9444 3.85409 12.5 4.47909C13.0556 5.10409 13.3333 5.83325 13.3333 6.66659C13.3333 7.49992 13.0556 8.22908 12.5 8.85408C11.9444 9.47908 11.25 9.84714 10.4167 9.95825ZM15 16.6666V14.1666C15 13.6666 14.8889 13.1908 14.6667 12.7391C14.4444 12.2874 14.1528 11.8883 13.7917 11.5416C14.5 11.7916 15.1564 12.1146 15.7608 12.5108C16.3653 12.9069 16.6672 13.4588 16.6667 14.1666V16.6666H15ZM20 9.16658H15V7.49992H20V9.16658ZM6.66667 9.99992C5.75 9.99992 4.96528 9.67353 4.3125 9.02075C3.65972 8.36797 3.33333 7.58325 3.33333 6.66659C3.33333 5.74992 3.65972 4.9652 4.3125 4.31242C4.96528 3.65964 5.75 3.33325 6.66667 3.33325C7.58333 3.33325 8.36806 3.65964 9.02083 4.31242C9.67361 4.9652 10 5.74992 10 6.66659C10 7.58325 9.67361 8.36797 9.02083 9.02075C8.36806 9.67353 7.58333 9.99992 6.66667 9.99992ZM0 16.6666V14.3333C0 13.861 0.121667 13.4271 0.365 13.0316C0.608333 12.636 0.931111 12.3338 1.33333 12.1249C2.19444 11.6944 3.06944 11.3716 3.95833 11.1566C4.84722 10.9416 5.75 10.8338 6.66667 10.8333C7.58333 10.8333 8.48611 10.941 9.375 11.1566C10.2639 11.3721 11.1389 11.6949 12 12.1249C12.4028 12.3333 12.7258 12.6355 12.9692 13.0316C13.2125 13.4277 13.3339 13.8616 13.3333 14.3333V16.6666H0ZM6.66667 8.33325C7.125 8.33325 7.5175 8.1702 7.84417 7.84409C8.17083 7.51797 8.33389 7.12547 8.33333 6.66659C8.33333 6.20825 8.17028 5.81603 7.84417 5.48992C7.51806 5.16381 7.12556 5.00047 6.66667 4.99992C6.20833 4.99992 5.81611 5.16325 5.49 5.48992C5.16389 5.81659 5.00056 6.20881 5 6.66659C5 7.12492 5.16333 7.51742 5.49 7.84409C5.81667 8.17075 6.20889 8.33381 6.66667 8.33325ZM1.66667 14.9999H11.6667V14.3333C11.6667 14.1805 11.6286 14.0416 11.5525 13.9166C11.4764 13.7916 11.3756 13.6944 11.25 13.6249C10.5 13.2499 9.74306 12.9688 8.97917 12.7816C8.21528 12.5944 7.44444 12.5005 6.66667 12.4999C5.88889 12.4999 5.11806 12.5938 4.35417 12.7816C3.59028 12.9694 2.83333 13.2505 2.08333 13.6249C1.95833 13.6944 1.8575 13.7916 1.78083 13.9166C1.70417 14.0416 1.66611 14.1805 1.66667 14.3333V14.9999Z"
    fill="#2D3748" />
</svg>