<svg width="40" height="40" viewBox="0 0 40 40" fill="none" xmlns="http://www.w3.org/2000/svg">
    <rect width="40" height="40" rx="6" fill="#FFF4CC" />
    <path
        d="M20 13.9C20.2758 13.9 20.5489 13.9543 20.8036 14.0599C21.0584 14.1654 21.2899 14.3201 21.4849 14.5151C21.6799 14.7101 21.8346 14.9416 21.9401 15.1964C22.0457 15.4511 22.1 15.7242 22.1 16C22.1 16.2758 22.0457 16.5489 21.9401 16.8036C21.8346 17.0584 21.6799 17.2899 21.4849 17.4849C21.2899 17.6799 21.0584 17.8346 20.8036 17.9401C20.5489 18.0457 20.2758 18.1 20 18.1C19.443 18.1 18.9089 17.8788 18.5151 17.4849C18.1212 17.0911 17.9 16.557 17.9 16C17.9 15.443 18.1212 14.9089 18.5151 14.5151C18.9089 14.1212 19.443 13.9 20 13.9ZM20 22.9C22.97 22.9 26.1 24.36 26.1 25V26.1H13.9V25C13.9 24.36 17.03 22.9 20 22.9ZM20 12C17.79 12 16 13.79 16 16C16 18.21 17.79 20 20 20C22.21 20 24 18.21 24 16C24 13.79 22.21 12 20 12ZM20 21C17.33 21 12 22.34 12 25V28H28V25C28 22.34 22.67 21 20 21Z"
        fill="#FFA500" />
</svg>