<svg width="20" height="20" viewBox="0 0 20 20" fill="none" xmlns="http://www.w3.org/2000/svg">
<g id="User">
<path id="Vector" d="M9.99992 4.91683C10.2297 4.91683 10.4573 4.96209 10.6696 5.05004C10.8819 5.13799 11.0749 5.26689 11.2374 5.42939C11.3999 5.59189 11.5288 5.78481 11.6167 5.99713C11.7047 6.20945 11.7499 6.43702 11.7499 6.66683C11.7499 6.89664 11.7047 7.12421 11.6167 7.33653C11.5288 7.54885 11.3999 7.74176 11.2374 7.90427C11.0749 8.06677 10.8819 8.19567 10.6696 8.28362C10.4573 8.37156 10.2297 8.41683 9.99992 8.41683C9.53579 8.41683 9.09067 8.23245 8.76248 7.90427C8.43429 7.57608 8.24992 7.13096 8.24992 6.66683C8.24992 6.2027 8.43429 5.75758 8.76248 5.42939C9.09067 5.1012 9.53579 4.91683 9.99992 4.91683ZM9.99992 12.4168C12.4749 12.4168 15.0833 13.6335 15.0833 14.1668V15.0835H4.91659V14.1668C4.91659 13.6335 7.52492 12.4168 9.99992 12.4168ZM9.99992 3.3335C8.15825 3.3335 6.66659 4.82516 6.66659 6.66683C6.66659 8.5085 8.15825 10.0002 9.99992 10.0002C11.8416 10.0002 13.3333 8.5085 13.3333 6.66683C13.3333 4.82516 11.8416 3.3335 9.99992 3.3335ZM9.99992 10.8335C7.77492 10.8335 3.33325 11.9502 3.33325 14.1668V16.6668H16.6666V14.1668C16.6666 11.9502 12.2249 10.8335 9.99992 10.8335Z" fill="#2D3748"/>
</g>
</svg>
