<svg width="32" height="32" viewBox="0 0 32 32" fill="none" xmlns="http://www.w3.org/2000/svg">
<path fill-rule="evenodd" clip-rule="evenodd" d="M25.9971 21.7881C25.7317 22.2477 25.4546 22.6634 25.1577 23.0491L26.6867 26.866C26.8387 27.2137 26.7073 27.6021 26.3633 27.812L21.0195 30.8921C20.6754 31.102 20.2629 31.0124 20.0208 30.7241L18.326 28.5638L18.3207 21.7099C20.3105 20.8405 21.6775 18.8511 21.6757 16.4874C21.6737 13.9993 20.0549 11.8832 17.8772 11.0729L17.8813 16.4223L14.1491 16.4195L14.0828 11.0078C11.8441 11.7525 10.2907 13.9284 10.2926 16.4165C10.2944 18.7802 11.6644 20.7717 13.6555 21.6441L13.6608 28.4819L11.908 30.7199C11.6733 31.03 11.258 31.106 10.9238 30.913L5.57552 27.8252C5.24125 27.6322 5.11333 27.2426 5.23667 26.8682L6.77773 23.041C6.14898 22.2324 5.66813 21.3605 5.27731 20.4292L1.17663 19.8444C0.813929 19.765 0.522025 19.4665 0.531795 19.0635L0.527344 12.8956C0.534964 12.5286 0.821716 12.1928 1.18499 12.1425L5.28282 11.5743C5.45442 11.1163 5.69192 10.6406 5.9412 10.2088C6.19047 9.77708 6.51154 9.34962 6.82241 8.972L5.26559 5.13906C5.09961 4.78325 5.25297 4.38896 5.58896 4.19298L10.9188 1.10484C11.2629 0.894923 11.6754 0.98453 11.9175 1.27286L14.4742 4.53176C15.4542 4.41045 16.4717 4.38507 17.4864 4.52523L20.0303 1.27706C20.279 0.97496 20.6803 0.890968 21.0145 1.08396L26.3628 4.17177C26.6971 4.36476 26.8389 4.76235 26.7016 5.12878L25.1606 8.95591C25.7893 9.76461 26.2702 10.6365 26.661 11.5678L30.7617 12.1526C31.1244 12.232 31.4163 12.5305 31.4065 12.9334L31.411 19.1013C31.4033 19.4683 31.1166 19.8042 30.7533 19.8544L26.6555 20.4226C26.4839 20.8807 26.2544 21.3424 25.9971 21.7881Z" fill="#323A46"/>
</svg>
