<svg width="28" height="28" viewBox="0 0 28 28" fill="none" xmlns="http://www.w3.org/2000/svg">
<path d="M11.3203 6.78125V7.96777C9.93164 8.31934 8.68359 8.94336 7.57617 9.83984C6.46875 10.7363 5.58984 11.8262 4.93945 13.1094C4.28906 14.375 3.91992 15.7461 3.83203 17.2227C3.30469 17.3984 2.88281 17.6709 2.56641 18.04C2.21484 18.4443 2.03906 18.9102 2.03906 19.4375V21.9688H25.6641V19.4375C25.6641 18.9102 25.4883 18.4443 25.1367 18.04C24.8203 17.6709 24.3984 17.3984 23.8711 17.2227C23.7832 15.7461 23.4141 14.375 22.7637 13.1094C22.1133 11.8262 21.2344 10.7363 20.127 9.83984C19.0195 8.94336 17.7715 8.31934 16.3828 7.96777V6.78125H11.3203ZM13.0342 8.46875H14.6953C14.6777 8.55664 14.6777 8.65332 14.6953 8.75879V13.5312H16.3828V9.73438C17.9824 10.2441 19.3184 11.1494 20.3906 12.4502C21.4629 13.7334 22.0869 15.2188 22.2627 16.9062H20.6016V18.5938H23.1328C23.3789 18.5938 23.5811 18.6729 23.7393 18.8311C23.8975 18.9893 23.9766 19.1914 23.9766 19.4375V20.2812H3.72656V19.4375C3.72656 19.1914 3.80566 18.9893 3.96387 18.8311C4.12207 18.6729 4.32422 18.5938 4.57031 18.5938H7.10156V16.9062H5.44043C5.61621 15.2188 6.24023 13.7334 7.3125 12.4502C8.38477 11.1494 9.7207 10.2441 11.3203 9.73438V13.5312H13.0078V8.89062C13.0605 8.75 13.0693 8.60938 13.0342 8.46875Z" fill="#323A46"/>
</svg>
