<svg width="15" height="16" viewBox="0 0 15 16" fill="none" xmlns="http://www.w3.org/2000/svg">
<path fill-rule="evenodd" clip-rule="evenodd" d="M11.3333 1.1001V3.22317H8.81772L6.67859 6.92197L4.53945 3.22317H0.928589V4.28471H3.88915L6.0454 8.0001L3.88915 11.7155H0.928589V12.777H4.53945L9.46802 4.28471H11.3333V6.40779L14.0714 3.75394L11.3333 1.1001ZM7.92784 9.06169L7.29466 10.1564L8.81773 12.7771H11.3333V14.9001L14.0714 12.2463L11.3333 9.59246V11.7155H9.46802L7.92784 9.06169Z" fill="white"/>
<path d="M11.3333 1.1001L11.5073 0.920581L11.0833 0.509633V1.1001H11.3333ZM11.3333 3.22317V3.47317H11.5833V3.22317H11.3333ZM8.81772 3.22317V2.97317H8.67351L8.60131 3.09801L8.81772 3.22317ZM6.67859 6.92197L6.46217 7.04713L6.67859 7.42134L6.895 7.04713L6.67859 6.92197ZM4.53945 3.22317L4.75586 3.09801L4.68366 2.97317H4.53945V3.22317ZM0.928589 3.22317V2.97317H0.678589V3.22317H0.928589ZM0.928589 4.28471H0.678589V4.53471H0.928589V4.28471ZM3.88915 4.28471L4.10538 4.15923L4.03312 4.03471H3.88915V4.28471ZM6.0454 8.0001L6.26163 8.12558L6.33446 8.0001L6.26163 7.87461L6.0454 8.0001ZM3.88915 11.7155V11.9655H4.03312L4.10538 11.841L3.88915 11.7155ZM0.928589 11.7155V11.4655H0.678589V11.7155H0.928589ZM0.928589 12.777H0.678589V13.027H0.928589V12.777ZM4.53945 12.777V13.027H4.68341L4.75567 12.9025L4.53945 12.777ZM9.46802 4.28471V4.03471H9.32405L9.25179 4.15923L9.46802 4.28471ZM11.3333 4.28471H11.5833V4.03471H11.3333V4.28471ZM11.3333 6.40779H11.0833V6.99825L11.5073 6.58731L11.3333 6.40779ZM14.0714 3.75394L14.2454 3.93346L14.4306 3.75394L14.2454 3.57443L14.0714 3.75394ZM7.92784 9.06169L8.14407 8.9362L7.92748 8.563L7.71143 8.93652L7.92784 9.06169ZM7.29466 10.1564L7.07825 10.0312L7.00568 10.1567L7.07851 10.282L7.29466 10.1564ZM8.81773 12.7771L8.60158 12.9027L8.67387 13.0271H8.81773V12.7771ZM11.3333 12.7771H11.5833V12.5271H11.3333V12.7771ZM11.3333 14.9001H11.0833V15.4906L11.5073 15.0797L11.3333 14.9001ZM14.0714 12.2463L14.2454 12.4258L14.4307 12.2463L14.2454 12.0668L14.0714 12.2463ZM11.3333 9.59246L11.5073 9.41294L11.0833 9.00199V9.59246H11.3333ZM11.3333 11.7155V11.9655H11.5833V11.7155H11.3333ZM9.46802 11.7155L9.2518 11.841L9.32406 11.9655H9.46802V11.7155ZM11.0833 1.1001V3.22317H11.5833V1.1001H11.0833ZM11.3333 2.97317H8.81772V3.47317H11.3333V2.97317ZM8.60131 3.09801L6.46217 6.79681L6.895 7.04713L9.03414 3.34833L8.60131 3.09801ZM6.895 6.79681L4.75586 3.09801L4.32303 3.34833L6.46217 7.04713L6.895 6.79681ZM4.53945 2.97317H0.928589V3.47317H4.53945V2.97317ZM0.678589 3.22317V4.28471H1.17859V3.22317H0.678589ZM0.928589 4.53471H3.88915V4.03471H0.928589V4.53471ZM3.67293 4.4102L5.82918 8.12558L6.26163 7.87461L4.10538 4.15923L3.67293 4.4102ZM5.82918 7.87461L3.67293 11.59L4.10538 11.841L6.26163 8.12558L5.82918 7.87461ZM3.88915 11.4655H0.928589V11.9655H3.88915V11.4655ZM0.678589 11.7155V12.777H1.17859V11.7155H0.678589ZM0.928589 13.027H4.53945V12.527H0.928589V13.027ZM4.75567 12.9025L9.68424 4.4102L9.25179 4.15923L4.32322 12.6515L4.75567 12.9025ZM9.46802 4.53471H11.3333V4.03471H9.46802V4.53471ZM11.0833 4.28471V6.40779H11.5833V4.28471H11.0833ZM11.5073 6.58731L14.2454 3.93346L13.8974 3.57443L11.1594 6.22827L11.5073 6.58731ZM14.2454 3.57443L11.5073 0.920581L11.1594 1.27961L13.8974 3.93346L14.2454 3.57443ZM7.71143 8.93652L7.07825 10.0312L7.51107 10.2816L8.14425 9.18686L7.71143 8.93652ZM7.07851 10.282L8.60158 12.9027L9.03387 12.6515L7.51081 10.0308L7.07851 10.282ZM8.81773 13.0271H11.3333V12.5271H8.81773V13.0271ZM11.0833 12.7771V14.9001H11.5833V12.7771H11.0833ZM11.5073 15.0797L14.2454 12.4258L13.8974 12.0668L11.1594 14.7206L11.5073 15.0797ZM14.2454 12.0668L11.5073 9.41294L11.1594 9.77197L13.8974 12.4258L14.2454 12.0668ZM11.0833 9.59246V11.7155H11.5833V9.59246H11.0833ZM11.3333 11.4655H9.46802V11.9655H11.3333V11.4655ZM9.68425 11.59L8.14407 8.9362L7.71162 9.18717L9.2518 11.841L9.68425 11.59Z" fill="white"/>
</svg>
