<svg width="28" height="28" viewBox="0 0 28 28" fill="none" xmlns="http://www.w3.org/2000/svg">
<path d="M17.8945 4.25C16.8223 4.25 15.8291 4.51367 14.915 5.04102C14.0186 5.56836 13.3066 6.28906 12.7793 7.20312C12.252 8.09961 11.9883 9.08398 11.9883 10.1562C11.9883 10.4023 12.0234 10.6748 12.0938 10.9736C12.1289 11.1494 12.1992 11.4043 12.3047 11.7383L12.3311 11.8438L4.3418 19.833C3.99023 20.1846 3.75293 20.5977 3.62988 21.0723C3.52441 21.5469 3.52441 22.0215 3.62988 22.4961C3.75293 22.9531 3.99023 23.3574 4.3418 23.709C4.69336 24.0605 5.09766 24.2979 5.55469 24.4209C6.0293 24.5264 6.50391 24.5264 6.97852 24.4209C7.45312 24.2979 7.85742 24.0605 8.19141 23.709L16.207 15.7197L16.2598 15.7461C16.6113 15.8516 16.875 15.9219 17.0508 15.957C17.3496 16.0273 17.6309 16.0625 17.8945 16.0625C18.9668 16.0625 19.9512 15.7988 20.8477 15.2715C21.7617 14.7441 22.4824 14.0322 23.0098 13.1357C23.5371 12.2217 23.8008 11.2285 23.8008 10.1562C23.8008 9.3125 23.625 8.50391 23.2734 7.73047L22.7725 6.62305L19.2393 10.1562H17.8945V8.81152L21.4277 5.27832L20.3203 4.77734C19.5469 4.42578 18.7383 4.25 17.8945 4.25ZM17.8945 5.9375C17.9473 5.9375 18.0176 5.95508 18.1055 5.99023C18.1934 6.00781 18.2549 6.0166 18.29 6.0166L16.207 8.12598V11.8438H19.9248L22.0342 9.73438L22.0605 9.91895C22.0957 10.0244 22.1133 10.1035 22.1133 10.1562C22.1133 10.9297 21.9199 11.6416 21.5332 12.292C21.1641 12.9248 20.6543 13.4346 20.0039 13.8213C19.3711 14.1904 18.668 14.375 17.8945 14.375C17.3145 14.375 16.7607 14.2607 16.2334 14.0322L15.7061 13.8213L7.00488 22.4961C6.81152 22.707 6.56543 22.8125 6.2666 22.8125C5.98535 22.8125 5.73926 22.7158 5.52832 22.5225C5.33496 22.3115 5.23828 22.0654 5.23828 21.7842C5.23828 21.4854 5.34375 21.2393 5.55469 21.0459L14.2295 12.3447L14.0186 11.8174C13.79 11.29 13.6758 10.7363 13.6758 10.1562C13.6758 9.38281 13.8604 8.67969 14.2295 8.04688C14.6162 7.39648 15.126 6.88672 15.7588 6.51758C16.4092 6.13086 17.1211 5.9375 17.8945 5.9375Z" fill="#323A46"/>
</svg>
